<svg width="158" height="56" viewBox="0 0 158 56" fill="none" xmlns="http://www.w3.org/2000/svg">
<path fill-rule="evenodd" clip-rule="evenodd" d="M126.218 41.5896C127.428 39.8438 127.164 38.5284 126.108 36.7974C125.753 36.2154 116.768 22.7173 116.683 22.5879C115.513 20.5898 115.996 19.4426 116.608 18.5377C117.18 17.6907 119.25 14.6805 119.25 14.6805C119.25 14.6805 131.826 33.6352 132.178 34.1698C132.862 35.2085 133.033 36.7373 132.132 38.0243C131.428 39.0312 121.723 53.1571 121.723 53.1571H141.074C143.242 53.1571 144.597 51.6845 145.212 50.8066C145.527 50.3583 147.176 47.9611 148.631 45.8463C149.73 44.2503 150.767 42.7424 151.054 42.3303C152.017 40.9435 153.849 40.2816 153.867 40.2751L154.775 39.9536H149.372C147.435 39.9536 146.63 41.2275 146.126 41.9708C146.067 42.0566 141.472 48.7214 141.032 49.3549C140.638 49.9243 139.418 51.119 137.208 51.119L130.779 51.1185C130.779 51.1185 139.816 38.0087 140.871 36.4707C142.655 33.8683 142.359 31.4611 140.634 28.8574C140.03 27.9473 127.05 8.36523 126.757 7.91996C125.707 6.34756 125.96 4.88843 126.736 3.75608C127.447 2.71957 129.302 0 129.302 0C129.302 0 145.445 24.3389 146.246 25.5484C148.4 28.7969 147.732 31.5465 145.693 34.5114C144.812 35.7936 136.217 48.2731 136.217 48.2731C136.217 48.2731 137.376 48.2735 137.524 48.2726C138.02 48.2709 138.454 48.0552 138.844 47.4892C139.303 46.8213 144.276 39.6002 144.511 39.2573C145.599 37.6749 146.615 37.109 148.233 37.109L154.953 37.1094L157.969 41.6584C157.969 41.6584 154.918 41.7695 153.035 44.5065C152.448 45.3592 148.149 51.5969 147.033 53.2216C145.866 54.9199 144.473 56 141.732 56H116.292C116.292 56 125.565 42.5311 126.218 41.5896Z" fill="#EC972D"/>
<path fill-rule="evenodd" clip-rule="evenodd" d="M125.135 51H128.586C129.314 49.9269 137.829 37.4044 138.908 35.8136C140.388 33.6328 140.343 31.6518 138.622 29.0519C138.049 28.186 124.209 7 124.209 7C124.209 7 122.504 9.51888 121.584 10.8688C120.807 12.0062 120.682 13.4441 121.697 14.9981C121.96 15.4015 132.891 32.1016 133.284 32.7052C134.811 35.044 134.668 36.8302 133.528 38.6557C132.888 39.6793 125.135 51 125.135 51Z" fill="#EC972D"/>
<path fill-rule="evenodd" clip-rule="evenodd" d="M95.9688 40.2769C95.9688 38.4543 97.1529 37 99.5567 37H105.484V39.0665H99.3118C98.6398 39.0665 98.1856 39.4643 98.1856 40.2335C98.1856 40.9989 98.6398 41.3958 99.3118 41.3958C99.3118 41.3958 101.3 41.3906 102.344 41.3906C104.773 41.3906 105.969 43.0193 105.969 44.6888C105.969 46.3574 104.773 48 102.344 48H96.2918V45.9353H102.57C103.264 45.9353 103.729 45.5253 103.729 44.737C103.729 43.9491 103.264 43.5395 102.57 43.5395H99.5567C97.1529 43.5395 95.9688 42.0982 95.9688 40.2769Z" fill="#11174A"/>
<path fill-rule="evenodd" clip-rule="evenodd" d="M64.9688 48H66.9688V37H64.9688V48Z" fill="#11174A"/>
<path fill-rule="evenodd" clip-rule="evenodd" d="M63.9688 48V45.9883L58.5302 45.99V37H55.9688V48H63.9688Z" fill="#11174A"/>
<path fill-rule="evenodd" clip-rule="evenodd" d="M45.3742 39.0117H49.2123C50.1096 39.0117 50.6792 39.8659 50.6792 40.6334C50.6792 41.3987 50.1096 42.2282 49.2123 42.2282H46.2091L51.074 48H53.9688L50.5202 43.898H50.525C52.0082 43.423 52.9608 42.0811 52.9608 40.564C52.9608 38.6681 51.4794 37 49.3181 37H42.9688V48H45.3742V39.0117Z" fill="#11174A"/>
<path fill-rule="evenodd" clip-rule="evenodd" d="M37.9688 48H39.9688V37H37.9688V48Z" fill="#11174A"/>
<path fill-rule="evenodd" clip-rule="evenodd" d="M92.9688 48V45.9883L86.4314 45.99V43.1718H92.126V41.1744H86.4314V39.0104L92.9688 39.013V37H83.9688V48H92.9688Z" fill="#11174A"/>
<path fill-rule="evenodd" clip-rule="evenodd" d="M73.2818 39.0104H77.1176C78.0572 39.0104 78.6586 39.9033 78.6586 40.7336V48H80.9688V40.4269C80.9688 38.554 79.6902 37 77.6396 37H74.6036L73.2818 38.8325V37H70.9688V48H73.2818V39.0104Z" fill="#11174A"/>
<path fill-rule="evenodd" clip-rule="evenodd" d="M27.7148 43.0357L29.4687 39.3809L31.2222 43.0357H27.7148ZM30.6896 37H28.247L22.9688 48L25.3322 47.9991L26.7875 44.9658H32.1474L33.6031 48H35.9688L30.6896 37Z" fill="#11174A"/>
<path fill-rule="evenodd" clip-rule="evenodd" d="M0.96875 25.2768C0.96875 23.4545 2.15321 22 4.55679 22H10.4846V24.067H4.31153C3.64001 24.067 3.18585 24.4648 3.18585 25.2339C3.18585 25.9987 3.64001 26.3956 4.31153 26.3956C4.31153 26.3956 6.30028 26.3904 7.34434 26.3904C9.7733 26.3904 10.9688 28.0192 10.9688 29.6889C10.9688 31.3572 9.7733 33 7.34434 33H1.29224V30.9347H7.57015C8.26408 30.9347 8.72924 30.5248 8.72924 29.737C8.72924 28.9489 8.26408 28.5394 7.57015 28.5394H4.55679C2.15321 28.5394 0.96875 27.0983 0.96875 25.2768Z" fill="#11174A"/>
<path fill-rule="evenodd" clip-rule="evenodd" d="M13.9688 33H15.9688V22H13.9688V33Z" fill="#11174A"/>
<path fill-rule="evenodd" clip-rule="evenodd" d="M21.2824 24.0103H25.1177C26.0578 24.0103 26.6576 24.903 26.6576 25.7338V33H28.9688V25.4258C28.9688 23.5539 27.69 22 25.6393 22H22.6035L21.2824 23.832V22H18.9688V33H21.2824V24.0103Z" fill="#11174A"/>
<path fill-rule="evenodd" clip-rule="evenodd" d="M86.3751 24.0116H90.2117C91.1097 24.0116 91.6788 24.8666 91.6788 25.6331C91.6788 26.3992 91.1097 27.2282 90.2117 27.2282H87.209L92.0732 33H94.9688L91.5199 28.8979H91.5243C93.0085 28.4234 93.961 27.0816 93.961 25.5641C93.961 23.668 92.4798 22 90.3176 22H83.9688V33H86.3751V24.0116Z" fill="#11174A"/>
<path fill-rule="evenodd" clip-rule="evenodd" d="M104.969 33V30.9884H98.4305V28.1717H104.126V26.1728H98.4305V24.0103L104.969 24.0133V22H95.9688V33H104.969Z" fill="#11174A"/>
<path fill-rule="evenodd" clip-rule="evenodd" d="M65.2581 27.4902H61.4434V24.0098H65.2581C66.1612 24.0098 66.737 24.9333 66.737 25.7641C66.737 26.5922 66.1612 27.4902 65.2581 27.4902ZM65.3627 22H58.9688V33H61.4427V27.6547L62.8481 29.4853H65.3627C67.4766 29.4853 68.9688 27.7566 68.9688 25.7646C68.9688 23.7617 67.4766 22 65.3627 22Z" fill="#11174A"/>
<path fill-rule="evenodd" clip-rule="evenodd" d="M75.9673 31.767C73.8778 31.767 72.1836 30.0788 72.1836 28.0054C72.1836 25.9194 73.8778 24.2285 75.9673 24.2285C78.0424 24.2285 79.737 25.9194 79.737 28.0054C79.737 30.0788 78.0424 31.767 75.9673 31.767ZM75.9679 22C72.6467 22 69.9688 24.6888 69.9688 28.0048C69.9688 31.3099 72.6467 34 75.9679 34C79.2778 34 81.9688 31.3099 81.9688 28.0048C81.9688 24.6888 79.2778 22 75.9679 22Z" fill="#11174A"/>
<path fill-rule="evenodd" clip-rule="evenodd" d="M42.8741 24.0103V22H38.1004C33.9941 22 31.9688 24.9716 31.9688 27.5132C31.9688 30.051 33.9941 33 38.1004 33H42.9688V26.9541H40.5782L40.5756 30.8761H37.9649C35.9399 30.8761 34.272 29.6289 34.272 27.443C34.272 25.2948 35.9399 24.0103 37.9649 24.0103H42.8741Z" fill="#11174A"/>
<path fill-rule="evenodd" clip-rule="evenodd" d="M48.7129 28.0343L50.4666 24.3789L52.2202 28.0343H48.7129ZM51.6899 22H49.2472L43.9688 33L46.3323 32.9991L47.7879 29.966H53.1475L54.603 33H56.9688L51.6899 22Z" fill="#11174A"/>
<path fill-rule="evenodd" clip-rule="evenodd" d="M0.96875 54V56H109.254L110.969 54H0.96875Z" fill="#EC972D"/>
</svg>
