<svg width="292" height="128" viewBox="0 0 292 128" fill="none" xmlns="http://www.w3.org/2000/svg">
<g opacity="0.4" filter="url(#filter0_f_613_18772)">
<path d="M289.09 6.26685C285.391 8.42973 283.037 12.9246 283.053 17.852C283.07 22.7834 285.457 27.2508 289.169 29.3783L289.196 37.204C285.497 39.3669 283.143 43.8617 283.159 48.7892C283.176 53.7205 285.563 58.1918 289.275 60.3193L289.302 68.1568C285.602 70.3197 283.248 74.8146 283.265 79.742C283.282 84.6695 285.668 89.1407 289.381 91.2682L289.407 99.0939C285.708 101.257 283.354 105.752 283.371 110.679C283.387 115.61 285.774 120.082 289.487 122.209L289.5 125.599L97.8126 125.599C96.3414 122.878 93.9512 121.14 91.2469 120.833C90.956 120.801 90.6618 120.782 90.3643 120.786C87.336 120.801 84.5656 122.626 82.9523 125.674L2.97659 125.599L2.96335 122.209C6.66272 120.046 9.0166 115.551 9.00006 110.62C8.98352 105.693 6.59662 101.221 2.88404 99.0939L2.85758 91.2682C6.55695 89.1053 8.9108 84.6104 8.89426 79.683C8.87772 74.7555 6.49082 70.2842 2.77823 68.1568L2.75181 60.3192C6.44788 58.1563 8.80503 53.6654 8.78849 48.7301C8.77195 43.7987 6.38502 39.3314 2.67243 37.2039L2.646 29.3782C6.34538 27.2153 8.69923 22.7204 8.68269 17.793C8.66615 12.8655 6.27928 8.39427 2.56669 6.26677L2.55342 2.88875L82.5291 2.96354C83.997 5.68484 86.3905 7.423 89.0948 7.72974C89.3857 7.76121 89.6799 7.78086 89.9774 7.77693C93.0024 7.7612 95.7761 5.93651 97.3894 2.88882L289.08 2.88882L289.093 6.26685L289.09 6.26685Z" fill="#BB8643"/>
</g>
<defs>
<filter id="filter0_f_613_18772" x="0.553467" y="0.888672" width="290.947" height="126.785" filterUnits="userSpaceOnUse" color-interpolation-filters="sRGB">
<feFlood flood-opacity="0" result="BackgroundImageFix"/>
<feBlend mode="normal" in="SourceGraphic" in2="BackgroundImageFix" result="shape"/>
<feGaussianBlur stdDeviation="1" result="effect1_foregroundBlur_613_18772"/>
</filter>
</defs>
</svg>
