<svg width="232" height="79" viewBox="0 0 232 79" fill="none" xmlns="http://www.w3.org/2000/svg">
<path d="M230.834 1.0066L230.839 1.91617C227.202 3.44753 224.771 6.44542 224.789 9.86318C224.807 13.2827 227.271 16.261 230.921 17.7691L230.943 21.7696C227.307 23.3013 224.877 26.2985 224.895 29.7154C224.913 33.1347 227.377 36.1154 231.028 37.6238L231.049 41.6319C227.413 43.1636 224.983 46.1608 225.001 49.5777C225.019 52.9947 227.483 55.9752 231.134 57.4836L231.155 61.484C227.519 63.0158 225.089 66.013 225.107 69.4298C225.125 72.8493 227.589 75.8301 231.24 77.3384L231.246 78.2492C185.22 78.1995 157.365 78.1586 133.473 78.1234C96.9896 78.0698 69.7489 78.0298 1.16969 77.993L1.16408 77.0749C4.79946 75.543 7.2291 72.5458 7.2112 69.1267C7.1933 65.7097 4.72902 62.7292 1.07877 61.2209L1.05766 57.2203C4.69314 55.6886 7.12307 52.6914 7.10517 49.2746C7.08726 45.8575 4.62299 42.877 0.972745 41.3687L0.951619 37.3604C4.58389 35.829 7.01707 32.8341 6.99917 29.4123C6.98126 25.9927 4.51682 23.0144 0.866708 21.5063L0.845591 17.5059C4.48108 15.9741 6.91104 12.9769 6.89313 9.56005C6.87523 6.14291 4.41076 3.16227 0.760273 1.65398L0.754738 0.750839L230.834 1.0066Z" fill="#FCFBF8" stroke="url(#paint0_linear_613_18696)" stroke-width="1.5"/>
<defs>
<linearGradient id="paint0_linear_613_18696" x1="0.00012207" y1="0" x2="238.389" y2="33.3937" gradientUnits="userSpaceOnUse">
<stop stop-color="#A26D2B"/>
<stop offset="1" stop-color="#CA995B"/>
</linearGradient>
</defs>
</svg>
