<svg width="270" height="112" viewBox="0 0 270 112" fill="none" xmlns="http://www.w3.org/2000/svg">
<g opacity="0.2" filter="url(#filter0_f_613_18739)">
<path d="M265.589 4.77872C261.884 6.55787 259.527 10.2553 259.544 14.3085C259.56 18.3649 261.951 22.0397 265.669 23.7897L265.695 30.227C261.99 32.0061 259.633 35.7035 259.65 39.7567C259.666 43.8132 262.057 47.4911 265.775 49.2412L265.801 55.6881C262.096 57.4673 259.739 61.1647 259.756 65.2179C259.772 69.2711 262.163 72.9491 265.881 74.6991L265.907 81.1364C262.202 82.9155 259.845 86.6129 259.861 90.6661C259.878 94.7226 262.269 98.4005 265.987 100.151L266 102.939L85.6186 103.67C84.1452 101.432 81.7514 100.002 79.043 99.7494C78.7517 99.7236 78.457 99.7074 78.159 99.7106C75.1262 99.7236 72.3516 101.225 70.7358 103.731L4.42383 104L4.41055 101.212C8.11554 99.4324 10.4729 95.735 10.4564 91.6786C10.4398 87.6254 8.04932 83.9474 4.33112 82.1974L4.30463 75.7601C8.00962 73.981 10.367 70.2836 10.3504 66.2304C10.3339 62.1771 7.94336 58.4992 4.22516 56.7491L4.19867 50.3022C7.90033 48.523 10.2611 44.8289 10.2445 40.7692C10.228 36.7127 7.83744 33.038 4.11921 31.288L4.09272 24.8507C7.79771 23.0715 10.1551 19.3742 10.1386 15.3209C10.122 11.2677 7.73148 7.58975 4.01328 5.83972L4.00001 3.06102L70.312 2.79254C71.7821 5.03103 74.1792 6.46081 76.8876 6.71313C77.179 6.739 77.4736 6.75518 77.7716 6.75194C80.8012 6.73901 83.5791 5.23806 85.1948 2.73108L265.58 2.00003L265.593 4.77872L265.589 4.77872Z" fill="#BB8643"/>
</g>
<g filter="url(#filter1_d_613_18739)">
<path d="M265.589 4.77872C261.884 6.55787 259.527 10.2553 259.544 14.3085C259.56 18.3649 261.951 22.0397 265.669 23.7897L265.695 30.227C261.99 32.0061 259.633 35.7035 259.65 39.7567C259.666 43.8132 262.057 47.4911 265.775 49.2412L265.801 55.6881C262.096 57.4673 259.739 61.1647 259.756 65.2179C259.772 69.2711 262.163 72.9491 265.881 74.6991L265.907 81.1364C262.202 82.9155 259.845 86.6129 259.861 90.6661C259.878 94.7226 262.269 98.4005 265.987 100.151L266 102.939L85.6186 103.67C84.1452 101.432 81.7514 100.002 79.043 99.7494C78.7517 99.7236 78.457 99.7074 78.159 99.7106C75.1262 99.7236 72.3516 101.225 70.7358 103.731L4.42383 104L4.41055 101.212C8.11554 99.4324 10.4729 95.735 10.4564 91.6786C10.4398 87.6254 8.04932 83.9474 4.33112 82.1974L4.30463 75.7601C8.00962 73.981 10.367 70.2836 10.3504 66.2304C10.3339 62.1771 7.94336 58.4992 4.22516 56.7491L4.19867 50.3022C7.90033 48.523 10.2611 44.8289 10.2445 40.7692C10.228 36.7127 7.83744 33.038 4.11921 31.288L4.09272 24.8507C7.79771 23.0715 10.1551 19.3742 10.1386 15.3209C10.122 11.2677 7.73148 7.58975 4.01328 5.83972L4.00001 3.06102L70.312 2.79254C71.7821 5.03103 74.1792 6.46081 76.8876 6.71313C77.179 6.739 77.4736 6.75518 77.7716 6.75194C80.8012 6.73901 83.5791 5.23806 85.1948 2.73108L265.58 2.00003L265.593 4.77872L265.589 4.77872Z" fill="#FCFBF8"/>
</g>
<line x1="78.5" y1="90" x2="78.5" y2="16" stroke="#A1661C" stroke-dasharray="5 5"/>
<defs>
<filter id="filter0_f_613_18739" x="2" y="0" width="266" height="106" filterUnits="userSpaceOnUse" color-interpolation-filters="sRGB">
<feFlood flood-opacity="0" result="BackgroundImageFix"/>
<feBlend mode="normal" in="SourceGraphic" in2="BackgroundImageFix" result="shape"/>
<feGaussianBlur stdDeviation="1" result="effect1_foregroundBlur_613_18739"/>
</filter>
<filter id="filter1_d_613_18739" x="0" y="2" width="270" height="110" filterUnits="userSpaceOnUse" color-interpolation-filters="sRGB">
<feFlood flood-opacity="0" result="BackgroundImageFix"/>
<feColorMatrix in="SourceAlpha" type="matrix" values="0 0 0 0 0 0 0 0 0 0 0 0 0 0 0 0 0 0 127 0" result="hardAlpha"/>
<feOffset dy="4"/>
<feGaussianBlur stdDeviation="2"/>
<feComposite in2="hardAlpha" operator="out"/>
<feColorMatrix type="matrix" values="0 0 0 0 0 0 0 0 0 0 0 0 0 0 0 0 0 0 0.2 0"/>
<feBlend mode="normal" in2="BackgroundImageFix" result="effect1_dropShadow_613_18739"/>
<feBlend mode="normal" in="SourceGraphic" in2="effect1_dropShadow_613_18739" result="shape"/>
</filter>
</defs>
</svg>
