<svg width="266" height="101" viewBox="0 0 266 101" fill="none" xmlns="http://www.w3.org/2000/svg">
<g opacity="0.4" filter="url(#filter0_f_613_18725)">
<path d="M263.536 4.97765C259.349 6.68179 256.685 10.2233 256.703 14.1057C256.722 17.9911 259.424 21.511 263.626 23.1872L263.656 29.3531C259.469 31.0573 256.804 34.5988 256.823 38.4812C256.842 42.3666 259.543 45.8896 263.746 47.5658L263.775 53.741C259.588 55.4452 256.924 58.9867 256.943 62.8691C256.962 66.7514 259.663 70.2743 263.865 71.9506L263.895 78.1164C259.708 79.8206 257.044 83.3621 257.063 87.2445C257.081 91.1299 259.783 94.6529 263.985 96.3291L264 99C131.513 98.8449 131.763 98.759 2.47897 98.6839L2.46399 96.0131C6.65109 94.3089 9.31531 90.7674 9.2966 86.882C9.27788 82.9996 6.5763 79.4767 2.37421 77.8004L2.34427 71.6345C6.53137 69.9304 9.19556 66.3888 9.17684 62.5065C9.15813 58.6241 6.45655 55.1012 2.25446 53.4249L2.22452 47.2497C6.40787 45.5456 9.07584 42.0072 9.05712 38.1186C9.03841 34.2332 6.3368 30.7133 2.13471 29.0371L2.1048 22.8712C6.29191 21.167 8.95611 17.6255 8.9374 13.7431C8.91869 9.86076 6.21708 6.33783 2.01499 4.66157L2.00001 2L263.525 2.31608L263.54 4.97765L263.536 4.97765Z" fill="#C79658"/>
</g>
<defs>
<filter id="filter0_f_613_18725" x="0" y="0" width="266" height="101" filterUnits="userSpaceOnUse" color-interpolation-filters="sRGB">
<feFlood flood-opacity="0" result="BackgroundImageFix"/>
<feBlend mode="normal" in="SourceGraphic" in2="BackgroundImageFix" result="shape"/>
<feGaussianBlur stdDeviation="1" result="effect1_foregroundBlur_613_18725"/>
</filter>
</defs>
</svg>
