<svg width="243" height="100" viewBox="0 0 243 100" fill="none" xmlns="http://www.w3.org/2000/svg">
<g filter="url(#filter0_d_613_18803)">
<path d="M4.36717 89.4937C7.68061 87.889 9.78889 84.5541 9.77409 80.8983C9.75928 77.2395 7.62139 73.925 4.29611 72.3466L4.27242 66.5404C7.58586 64.9357 9.69414 61.6008 9.67933 57.9449C9.66453 54.2862 7.52664 50.9688 4.20135 49.3903L4.17766 43.5754C7.4911 41.9707 9.59938 38.6358 9.58458 34.98C9.56977 31.3241 7.43188 28.0067 4.1066 26.4283L4.08291 20.6221C7.39635 19.0174 9.50463 15.6825 9.48983 12.0266C9.47502 8.36788 7.33713 5.05049 4.01184 3.47203L4 0.956996L165.319 0.297602C166.637 2.31663 168.778 3.60624 171.2 3.83382C171.46 3.85716 171.724 3.87175 171.99 3.86883C174.703 3.85716 177.184 2.50336 178.629 0.242167L237.933 0L237.945 2.51503C234.632 4.11975 232.524 7.45465 232.538 11.1134C232.553 14.7692 234.691 18.0866 238.016 19.6651L238.04 25.4713C234.727 27.076 232.618 30.4109 232.633 34.0667C232.648 37.7226 234.786 41.04 238.111 42.6184L238.135 48.4333C234.824 50.0381 232.713 53.37 232.728 57.0317C232.743 60.6905 234.881 64.0049 238.206 65.5834L238.23 71.3896C234.916 72.9943 232.808 76.3292 232.823 79.985C232.837 83.6409 234.975 86.9583 238.301 88.5367L238.312 91.043L179.008 91.2852C177.693 89.2661 175.55 87.9765 173.127 87.749C172.867 87.7256 172.603 87.711 172.337 87.7139C169.628 87.7256 167.143 89.0794 165.698 91.3406L4.37606 92L4.36421 89.4937H4.36717Z" fill="#FCFBF8"/>
</g>
<line x1="170.32" y1="11" x2="170.32" y2="81.8506" stroke="url(#paint0_linear_613_18803)" stroke-dasharray="5 5"/>
<defs>
<filter id="filter0_d_613_18803" x="0" y="0" width="242.312" height="100" filterUnits="userSpaceOnUse" color-interpolation-filters="sRGB">
<feFlood flood-opacity="0" result="BackgroundImageFix"/>
<feColorMatrix in="SourceAlpha" type="matrix" values="0 0 0 0 0 0 0 0 0 0 0 0 0 0 0 0 0 0 127 0" result="hardAlpha"/>
<feOffset dy="4"/>
<feGaussianBlur stdDeviation="2"/>
<feComposite in2="hardAlpha" operator="out"/>
<feColorMatrix type="matrix" values="0 0 0 0 0 0 0 0 0 0 0 0 0 0 0 0 0 0 0.2 0"/>
<feBlend mode="normal" in2="BackgroundImageFix" result="effect1_dropShadow_613_18803"/>
<feBlend mode="normal" in="SourceGraphic" in2="effect1_dropShadow_613_18803" result="shape"/>
</filter>
<linearGradient id="paint0_linear_613_18803" x1="169.82" y1="11" x2="149.624" y2="16.976" gradientUnits="userSpaceOnUse">
<stop stop-color="#A26D2B"/>
<stop offset="1" stop-color="#CA995B"/>
</linearGradient>
</defs>
</svg>
