<svg width="232" height="79" viewBox="0 0 232 79" fill="none" xmlns="http://www.w3.org/2000/svg">
<mask id="mask0_613_18689" style="mask-type:alpha" maskUnits="userSpaceOnUse" x="0" y="0" width="232" height="79">
<path d="M231.589 2.42509C227.881 3.813 225.522 6.69734 225.539 9.85926C225.555 13.0237 227.948 15.8904 231.669 17.2556L231.695 22.2773C227.988 23.6652 225.628 26.5495 225.645 29.7115C225.662 32.8759 228.054 35.7451 231.775 37.1103L231.801 42.1396C228.094 43.5275 225.734 46.4118 225.751 49.5738C225.768 52.7357 228.16 55.6049 231.881 56.9701L231.907 61.9917C228.2 63.3797 225.84 66.264 225.857 69.4259C225.874 72.5904 228.266 75.4596 231.987 76.8248L232 79C114.683 78.8737 114.905 78.8037 0.424133 78.7426L0.410843 76.5673C4.11852 75.1794 6.47766 72.2951 6.46109 69.1307C6.44452 65.9688 4.05228 63.0996 0.331361 61.7344L0.304842 56.7126C4.01251 55.3247 6.37163 52.4404 6.35506 49.2785C6.33849 46.1166 3.94625 43.2474 0.22533 41.8822L0.19881 36.8529C3.90317 35.465 6.26563 32.5832 6.24906 29.4162C6.23249 26.2517 3.84021 23.3851 0.119298 22.0199L0.0927789 16.9982C3.80045 15.6102 6.1596 12.7259 6.14303 9.56399C6.12646 6.40207 3.73421 3.53288 0.0132971 2.16767L6.9064e-06 2.6061e-06L231.579 0.257431L231.592 2.42509L231.589 2.42509Z" fill="url(#paint0_linear_613_18689)"/>
</mask>
<g mask="url(#mask0_613_18689)">
<rect x="-14" width="778" height="79" fill="currentColor"/>
</g>
<defs>
<linearGradient id="paint0_linear_613_18689" x1="232" y1="79" x2="-6.38857" y2="45.6063" gradientUnits="userSpaceOnUse">
<stop offset="0.130208" stop-color="#A26D2B"/>
<stop offset="0.380208" stop-color="#BD8A4B"/>
<stop offset="0.911458" stop-color="#A46F2E"/>
<stop offset="1" stop-color="#CA995B"/>
</linearGradient>
</defs>
</svg>
