<svg width="34" height="79" viewBox="0 0 34 79" fill="none" xmlns="http://www.w3.org/2000/svg">
<mask id="mask0_613_18689" style="mask-type:alpha" maskUnits="userSpaceOnUse" x="0" y="0" width="232" height="80">
<path d="M231.589 2.45577C227.881 3.86125 225.522 6.7821 225.539 9.98404C225.555 13.1885 227.948 16.0915 231.669 17.474L231.695 22.5593C227.988 23.9648 225.628 26.8856 225.645 30.0875C225.662 33.292 228.054 36.1976 231.775 37.58L231.801 42.673C228.094 44.0785 225.734 46.9993 225.751 50.2013C225.768 53.4032 228.16 56.3087 231.881 57.6912L231.907 62.7764C228.2 64.1819 225.84 67.1028 225.857 70.3047C225.874 73.5092 228.266 76.4147 231.987 77.7972L232 80C114.683 79.8721 114.905 79.8012 0.424135 79.7393L0.41085 77.5366C4.11852 76.1311 6.47766 73.2102 6.46109 70.0057C6.44453 66.8038 4.05228 63.8983 0.331357 62.5158L0.304848 57.4305C4.01252 56.025 6.37163 53.1042 6.35506 49.9023C6.33849 46.7003 3.94625 43.7948 0.225324 42.4123L0.198816 37.3194C3.90317 35.9139 6.26562 32.9956 6.24906 29.7885C6.23249 26.584 3.84021 23.6811 0.119292 22.2986L0.0927835 17.2133C3.80045 15.8078 6.15959 12.887 6.14303 9.68503C6.12646 6.48309 3.73421 3.57757 0.0132897 2.19509L5.09265e-06 -1.93634e-05L231.579 0.260664L231.592 2.45577L231.589 2.45577Z" fill="url(#paint0_linear_613_18689)"/>
</mask>
<g mask="url(#mask0_613_18689)">
<rect x="-14" width="778" height="80" fill="#BB8643"/>
</g>
<defs>
<linearGradient id="paint0_linear_613_18689" x1="232" y1="80" x2="-6.50261" y2="47.008" gradientUnits="userSpaceOnUse">
<stop offset="0.130208" stop-color="#A26D2B"/>
<stop offset="0.380208" stop-color="#BD8A4B"/>
<stop offset="0.911458" stop-color="#A46F2E"/>
<stop offset="1" stop-color="#CA995B"/>
</linearGradient>
</defs>
</svg>
