<svg width="48" height="26" viewBox="0 0 48 26" fill="none" xmlns="http://www.w3.org/2000/svg">
<rect x="21.4375" y="4.63574" width="5" height="1" fill="#E66B6E" stroke="#BB8643"/>
<path d="M42.8547 24.4C42.8547 14.1308 34.4005 5.80664 23.9708 5.80664C13.5412 5.80664 5.08984 14.1308 5.08984 24.4H42.8547Z" fill="#E66B6E" stroke="#BB8643" stroke-width="1.5" stroke-miterlimit="10"/>
<path d="M37.6763 20.6709C36.6305 17.6934 34.6211 15.1568 32.0137 13.4238L37.6763 20.6709Z" fill="#E66B6E"/>
<path d="M37.6763 20.6709C36.6305 17.6934 34.6211 15.1568 32.0137 13.4238" stroke="#BB8643" stroke-width="1.5" stroke-miterlimit="10" stroke-linecap="round"/>
<path d="M1.40039 24.4004H46.5453" stroke="#BB8643" stroke-width="1.5" stroke-miterlimit="10" stroke-linecap="round"/>
<path d="M21.0293 4.46689C21.0293 2.86512 22.3472 1.57031 23.9711 1.57031C25.5951 1.57031 26.913 2.86791 26.913 4.46689" fill="#E66B6E"/>
<path d="M26.913 5.88229V4.46689C26.913 2.86791 25.5951 1.57031 23.9711 1.57031C22.3472 1.57031 21.0293 2.86512 21.0293 4.46689V5.88229" stroke="#BB8643" stroke-width="1.5" stroke-miterlimit="10"/>
</svg>
