<svg width="34" height="31" viewBox="0 0 34 31" fill="none" xmlns="http://www.w3.org/2000/svg">
<path d="M28.0144 17.677H24.0562C23.409 17.677 22.8843 18.2035 22.8843 18.853V28.6582C22.8843 29.3077 23.409 29.8342 24.0562 29.8342H28.0144C28.6616 29.8342 29.1863 29.3077 29.1863 28.6582V18.853C29.1863 18.2035 28.6616 17.677 28.0144 17.677Z" stroke="#BB8643" stroke-width="1.5" stroke-miterlimit="10"/>
<path d="M29.1865 19.6826H31.797C32.444 19.6826 32.969 20.2094 32.969 20.8586V26.6526C32.969 27.3017 32.444 27.8286 31.797 27.8286H29.1865V19.6826Z" stroke="#BB8643" stroke-width="1.5" stroke-miterlimit="10"/>
<path d="M5.92314 29.833H9.88128C10.5285 29.833 11.0532 29.3065 11.0532 28.657L11.0532 18.8518C11.0532 18.2023 10.5285 17.6758 9.88128 17.6758H5.92314C5.27589 17.6758 4.75119 18.2023 4.75119 18.8518L4.75119 28.657C4.75119 29.3065 5.27589 29.833 5.92314 29.833Z" stroke="#BB8643" stroke-width="1.5" stroke-miterlimit="10"/>
<path d="M4.75146 27.8274H2.14095C1.494 27.8274 0.969008 27.3006 0.969008 26.6514L0.969008 20.8575C0.969008 20.2083 1.494 19.6815 2.14095 19.6815H4.75146L4.75146 27.8274Z" stroke="#BB8643" stroke-width="1.5" stroke-miterlimit="10"/>
<path d="M3.02832 19.6826V15.1487C3.02832 13.8047 3.21744 12.5053 3.56985 11.2754L3.64323 11.1001" stroke="#BB8643" stroke-width="1.5" stroke-miterlimit="10"/>
<path d="M30.9089 19.6824V15.1485C30.9089 13.8045 30.7197 12.5051 30.3673 11.2751L30.2939 11.1248" stroke="#BB8643" stroke-width="1.5" stroke-miterlimit="10"/>
<path d="M28.7667 12.6929C28.0794 12.6929 27.4552 12.2169 27.2847 11.5065C26.2688 7.27749 21.9304 4.20682 16.9687 4.20682C12.0071 4.20682 7.66761 7.27645 6.65275 11.5065C6.45226 12.3413 5.62653 12.8526 4.807 12.6483C3.98747 12.444 3.48624 11.6019 3.68673 10.7682C4.34194 8.03971 6.03165 5.56949 8.44477 3.81171C10.8476 2.06015 13.8746 1.0957 16.9687 1.0957C20.0629 1.0957 23.0899 2.06015 25.4937 3.81067C27.9069 5.56845 29.5966 8.03971 30.2518 10.7671C30.4523 11.6019 29.951 12.444 29.1315 12.6473C29.0096 12.6773 28.8876 12.6919 28.7677 12.6919L28.7667 12.6929Z" stroke="#BB8643" stroke-width="1.5" stroke-miterlimit="10"/>
</svg>
