<svg width="27" height="27" viewBox="0 0 27 27" fill="none" xmlns="http://www.w3.org/2000/svg">
<circle cx="11.7121" cy="11.7124" r="7.09527" transform="rotate(-45 11.7121 11.7124)" stroke="#BB8643" stroke-width="1.5"/>
<path d="M16.4668 16.4674L20.7317 20.7323" stroke="#BB8643" stroke-width="1.5"/>
<path d="M11.1761 13.1637L11.1793 13.2855H11.3011H12.3609H12.485L12.4859 13.1614C12.4907 12.5015 12.8866 12.0758 13.3327 11.5961C13.3414 11.5868 13.3501 11.5774 13.3589 11.568C13.8076 11.0852 14.2908 10.549 14.2908 9.68718C14.2908 9.13472 14.0807 8.64371 13.6908 8.29187C13.3015 7.94073 12.7424 7.73633 12.0566 7.73633C11.2972 7.73633 10.7066 7.96195 10.3055 8.35879C9.90458 8.75548 9.70703 9.30949 9.70703 9.93902V10.064H9.83203H10.8184H10.9434V9.93902C10.9434 9.61124 11.0537 9.3485 11.2378 9.16778C11.4222 8.98684 11.6907 8.87827 12.0251 8.87827C12.6475 8.87827 13.0124 9.28249 13.0124 9.72915C13.0124 10.0216 12.9077 10.2727 12.7416 10.5148C12.5941 10.7297 12.4036 10.9304 12.2001 11.1447C12.1712 11.1752 12.142 11.2059 12.1126 11.237C11.6485 11.7287 11.1537 12.2948 11.1761 13.1637ZM11.8573 14.0638C11.3882 14.0638 11.0502 14.4149 11.0502 14.8709C11.0502 15.3244 11.3857 15.6885 11.8573 15.6885C12.3263 15.6885 12.6748 15.327 12.6748 14.8709C12.6748 14.4124 12.3238 14.0638 11.8573 14.0638Z" fill="#BB8643" stroke="#BB8643" stroke-width="0.25"/>
</svg>
