<svg width="29" height="40" viewBox="0 0 29 40" fill="none" xmlns="http://www.w3.org/2000/svg">
<path d="M5.51074 21.2786V3.78831C5.51074 2.24837 6.75911 1 8.29905 1V1C9.83899 1 11.0874 2.24837 11.0874 3.78831V15.195" stroke="#FCFBF8" stroke-width="2" stroke-linecap="round"/>
<path d="M11.0876 14.7314V12.9137C11.0876 11.3738 12.336 10.1254 13.876 10.1254V10.1254C15.4159 10.1254 16.6643 11.3738 16.6643 12.9137V17.9867" stroke="#FCFBF8" stroke-width="2" stroke-linecap="round"/>
<path d="M16.6646 17.7508V15.9331C16.6646 14.3931 17.9129 13.1448 19.4529 13.1448V13.1448C20.9928 13.1448 22.2412 14.3931 22.2412 15.9331V19.6106" stroke="#FCFBF8" stroke-width="2" stroke-linecap="round"/>
<path d="M21.2387 18.4739C21.2387 19.0262 21.6864 19.4739 22.2387 19.4739C22.791 19.4739 23.2387 19.0262 23.2387 18.4739H21.2387ZM27.8153 21.8252H26.8153V21.8463L26.8162 21.8675L27.8153 21.8252ZM26.1136 30.3137L25.1367 30.1L26.1136 30.3137ZM4.45825 31.8496L3.59732 32.3583L4.45825 31.8496ZM1.13252 21.8252L2.11452 22.014L1.13252 21.8252ZM23.2387 18.4739V18.1477H21.2387V18.4739H23.2387ZM26.8153 18.1477V21.8252H28.8153V18.1477H26.8153ZM26.8162 21.8675C26.8415 22.4664 26.6412 23.5959 26.2934 25.1357C25.9674 26.5792 25.5056 28.4135 25.1367 30.1L27.0905 30.5274C27.4692 28.7959 27.8903 27.1437 28.2443 25.5763C28.5765 24.1052 28.8532 22.6995 28.8144 21.7829L26.8162 21.8675ZM25.1367 30.1C24.8126 31.5815 24.5837 35.2552 24.5187 37.3208L26.5177 37.3837C26.5836 35.2872 26.8123 31.7988 27.0905 30.5274L25.1367 30.1ZM24.4992 37.3514H6.59513V39.3514H24.4992V37.3514ZM6.55607 37.2808C6.54775 36.4314 6.483 35.3757 6.30562 34.3328C6.13086 33.3054 5.83424 32.2125 5.31917 31.3409L3.59732 32.3583C3.93175 32.9243 4.17611 33.7403 4.33394 34.6682C4.48914 35.5807 4.54859 36.5267 4.55617 37.3004L6.55607 37.2808ZM5.31917 31.3409C4.61237 30.1447 3.65238 28.7397 2.9232 27.0866C2.20311 25.454 1.78452 23.73 2.11452 22.014L0.150509 21.6363C-0.287421 23.9136 0.291312 26.0755 1.0933 27.8937C1.8862 29.6913 2.97305 31.3018 3.59732 32.3583L5.31917 31.3409ZM2.11452 22.014C2.38056 20.6306 3.03714 19.5883 3.7559 18.887C4.50385 18.1573 5.23725 17.87 5.59615 17.8473L5.46982 15.8513C4.48055 15.9139 3.3209 16.5173 2.35923 17.4555C1.3684 18.4222 0.498816 19.8251 0.150509 21.6363L2.11452 22.014ZM24.5187 37.3208C24.5185 37.3268 24.5173 37.331 24.5157 37.3347C24.5138 37.3389 24.511 37.343 24.5076 37.3464C24.5042 37.3497 24.5016 37.351 24.501 37.3513C24.5007 37.3514 24.5007 37.3513 24.5008 37.3513C24.501 37.3513 24.5006 37.3514 24.4992 37.3514V39.3514C25.6067 39.3514 26.4839 38.4602 26.5177 37.3837L24.5187 37.3208ZM25.027 16.3594C26.0146 16.3594 26.8153 17.16 26.8153 18.1477H28.8153C28.8153 16.0555 27.1192 14.3594 25.027 14.3594V16.3594ZM6.59513 37.3514C6.59308 37.3514 6.5932 37.3513 6.59279 37.3511C6.59146 37.3505 6.58663 37.348 6.58022 37.3414C6.56615 37.3269 6.55631 37.3051 6.55607 37.2808L4.55617 37.3004C4.56679 38.3847 5.43153 39.3514 6.59513 39.3514V37.3514ZM23.2387 18.1477C23.2387 17.16 24.0393 16.3594 25.027 16.3594V14.3594C22.9348 14.3594 21.2387 16.0555 21.2387 18.1477H23.2387Z" fill="#FCFBF8"/>
</svg>
