<svg width="10" height="9" viewBox="0 0 10 9" fill="none" xmlns="http://www.w3.org/2000/svg">
<path d="M0.972656 0.515625H3.30599C3.71855 0.515625 4.11421 0.679513 4.40593 0.971237C4.69766 1.26296 4.86155 1.65862 4.86155 2.07118V7.51563C4.86155 7.20621 4.73863 6.90946 4.51984 6.69067C4.30104 6.47187 4.0043 6.34896 3.69488 6.34896H0.972656V0.515625Z" stroke="#40415F" stroke-linecap="round" stroke-linejoin="round"/>
<path d="M8.75022 0.515625H6.41688C6.00432 0.515625 5.60866 0.679513 5.31694 0.971237C5.02522 1.26296 4.86133 1.65862 4.86133 2.07118V7.51563C4.86133 7.20621 4.98424 6.90946 5.20304 6.69067C5.42183 6.47187 5.71858 6.34896 6.02799 6.34896H8.75022V0.515625Z" stroke="#40415F" stroke-linecap="round" stroke-linejoin="round"/>
</svg>
