<svg width="233" height="79" viewBox="0 0 233 79" fill="none" xmlns="http://www.w3.org/2000/svg">
<mask id="mask0_33_60" style="mask-type:alpha" maskUnits="userSpaceOnUse" x="0" y="0" width="233" height="79">
<path d="M231.62 2.42509C227.913 3.813 225.554 6.69734 225.57 9.85926C225.587 13.0237 227.979 15.8904 231.7 17.2556L231.726 22.2773C228.019 23.6652 225.66 26.5495 225.676 29.7115C225.693 32.8759 228.085 35.7451 231.806 37.1103L231.832 42.1396C228.125 43.5275 225.766 46.4118 225.782 49.5738C225.799 52.7357 228.191 55.6049 231.912 56.9701L231.938 61.9917C228.231 63.3797 225.872 66.264 225.888 69.4259C225.905 72.5904 228.297 75.4596 232.018 76.8248L232.031 79C114.714 78.8737 114.936 78.8037 0.455383 78.7426L0.442093 76.5673C4.14977 75.1794 6.50891 72.2951 6.49234 69.1307C6.47577 65.9688 4.08353 63.0996 0.362611 61.7344L0.336092 56.7126C4.04376 55.3247 6.40288 52.4404 6.38631 49.2785C6.36974 46.1166 3.9775 43.2474 0.25658 41.8822L0.23006 36.8529C3.93442 35.465 6.29688 32.5832 6.28031 29.4162C6.26374 26.2517 3.87146 23.3851 0.150548 22.0199L0.124029 16.9982C3.8317 15.6102 6.19085 12.7259 6.17428 9.56399C6.15771 6.40207 3.76546 3.53288 0.0445471 2.16767L0.0312569 2.6061e-06L231.61 0.257431L231.624 2.42509L231.62 2.42509Z" fill="url(#paint0_linear_33_60)"/>
</mask>
<g mask="url(#mask0_33_60)">
<rect x="-13.9688" width="778" height="79" fill="#B88545"/>
</g>
<defs>
<linearGradient id="paint0_linear_33_60" x1="232.031" y1="79" x2="-6.35732" y2="45.6063" gradientUnits="userSpaceOnUse">
<stop offset="0.130208" stop-color="#A26D2B"/>
<stop offset="0.380208" stop-color="#BD8A4B"/>
<stop offset="0.911458" stop-color="#A46F2E"/>
<stop offset="1" stop-color="#CA995B"/>
</linearGradient>
</defs>
</svg>
