<svg width="205" height="49" viewBox="0 0 205 49" fill="none" xmlns="http://www.w3.org/2000/svg">
<path d="M190.031 15.6143L171.032 34.6137" stroke="#BB8643" stroke-width="1.5"/>
<path d="M190.031 34.6143L171.032 15.6148" stroke="#BB8643" stroke-width="1.5"/>
<rect x="0.53125" y="1.36426" width="203" height="47" rx="23.5" stroke="#BB8643"/>
<path d="M16.3573 31.8643V17.7443H19.6373C22.0373 17.7443 23.5973 19.3243 23.5973 21.3243C23.5973 22.7843 22.7973 23.9643 21.3773 24.5043C22.9973 25.0243 23.9973 26.3443 23.9973 27.9843C23.9973 30.2043 22.2373 31.8643 19.5773 31.8643H16.3573ZM18.0373 30.4443H19.3773C21.2373 30.4443 22.3373 29.3243 22.3373 27.8243C22.3373 26.3043 21.2373 25.1843 19.3773 25.1843H18.0373V30.4443ZM18.0373 23.8243H19.3373C20.9773 23.8243 21.9373 22.8243 21.9373 21.4843C21.9373 20.1443 20.9773 19.1443 19.3373 19.1443H18.0373V23.8243ZM26.4795 31.8643L32.8195 17.7443H34.3795L40.7195 31.8643H38.7995L37.4995 28.8643H29.5795L28.2595 31.8643H26.4795ZM30.1995 27.4643H36.8795L33.5595 19.8043L30.1995 27.4643ZM49.4187 32.1643C45.2587 32.1643 42.0187 28.9443 42.0187 24.8043C42.0187 20.6643 45.2587 17.4443 49.4187 17.4443C51.9787 17.4443 54.0987 18.6643 55.3987 20.5843L54.0787 21.5243C53.0787 20.0243 51.4187 19.0243 49.4187 19.0243C46.1987 19.0243 43.6987 21.5443 43.6987 24.8043C43.6987 28.0443 46.1987 30.5843 49.4187 30.5843C51.5387 30.5843 53.2987 29.4443 54.2787 27.7643L55.6587 28.6443C54.3787 30.7643 52.1387 32.1643 49.4187 32.1643ZM59.5386 31.8643V17.7443H61.2186V24.2043L67.0186 17.7443H69.1786L62.8586 24.6643L69.5786 31.8643H67.3986L61.2186 25.3043V31.8643H59.5386ZM80.9042 31.8643V19.3243H76.9842V17.7443H86.4842V19.3243H82.5842V31.8643H80.9042ZM95.7633 32.1643C91.6033 32.1643 88.3633 28.9443 88.3633 24.8043C88.3633 20.6643 91.6033 17.4443 95.7633 17.4443C99.9233 17.4443 103.163 20.6643 103.163 24.8043C103.163 28.9443 99.9233 32.1643 95.7633 32.1643ZM90.0433 24.8043C90.0433 28.0443 92.5433 30.5843 95.7633 30.5843C98.9833 30.5843 101.483 28.0443 101.483 24.8043C101.483 21.5443 98.9833 19.0243 95.7633 19.0243C92.5433 19.0243 90.0433 21.5443 90.0433 24.8043ZM113.421 31.8643V17.7443H120.801V19.2843H115.101V24.0043H120.801V25.4443H115.101V31.8643H113.421ZM125.3 31.8643V17.7443H126.98V31.8643H125.3ZM131.916 31.8643V17.7443H133.596V30.2843H139.816V31.8643H131.916ZM143.165 31.8643V17.7443H144.765L149.965 26.7443L155.165 17.7443H156.705V31.8643H155.085V20.7043L150.505 28.8843H149.365L144.785 20.7043V31.8643H143.165Z" fill="#BB8643"/>
</svg>
