<svg width="256" height="106" viewBox="0 0 256 106" fill="none" xmlns="http://www.w3.org/2000/svg">
<path d="M1.19492 103.112C4.50394 101.263 6.60941 97.4211 6.59463 93.2089C6.57984 88.9934 4.4448 85.1745 1.12395 83.3559L1.1003 76.6662C4.40931 74.8172 6.51479 70.9749 6.5 66.7627C6.48521 62.5472 4.35017 58.7251 1.02932 56.9064L1.00567 50.2066C4.31469 48.3577 6.42016 44.5153 6.40537 40.3031C6.39059 36.091 4.25554 32.2687 0.934697 30.45L0.91104 23.7603C4.22006 21.9114 6.32553 18.0691 6.31074 13.8569C6.29596 9.64136 4.16092 5.81915 0.840069 4.00049L0.82824 1.10273L173.104 0.342998C174.42 2.66927 176.558 4.15513 178.977 4.41734C179.237 4.44423 179.5 4.46104 179.766 4.45768C182.475 4.44423 184.953 2.88442 186.396 0.279126L254.917 0L254.929 2.89775C251.62 4.74667 249.515 8.58905 249.529 12.8046C249.544 17.0167 251.679 20.839 255 22.6576L255.024 29.3473C251.715 31.1962 249.609 35.0386 249.624 39.2508C249.639 43.463 251.774 47.2852 255.095 49.1038L255.118 55.8036C251.812 57.6525 249.704 61.4916 249.719 65.7105C249.733 69.926 251.868 73.7448 255.189 75.5635L255.213 82.2532C251.904 84.1021 249.798 87.9445 249.813 92.1567C249.828 96.3688 251.963 100.191 255.284 102.01L255.296 104.897L186.775 105.176C185.462 102.85 183.321 101.364 180.902 101.102C180.642 101.075 180.379 101.058 180.112 101.062C177.407 101.075 174.926 102.635 173.482 105.24L1.20379 106L1.19197 103.112H1.19492Z" fill="#BB8643"/>
</svg>
