<svg width="309" height="92" viewBox="0 0 309 92" fill="none" xmlns="http://www.w3.org/2000/svg">
<path d="M0.867173 88.5367C4.18061 86.932 6.28889 83.5971 6.27409 79.9413C6.25928 76.2825 4.12139 72.968 0.796107 71.3896L0.772419 65.5834C4.08586 63.9787 6.19414 60.6438 6.17933 56.9879C6.16453 53.3292 4.02664 50.0118 0.701353 48.4333L0.677664 42.6184C3.9911 41.0137 6.09938 37.6788 6.08458 34.023C6.06977 30.3671 3.93188 27.0497 0.606599 25.4713L0.58291 19.6651C3.89635 18.0604 6.00463 14.7255 5.98983 11.0696C5.97502 7.41088 3.83713 4.09349 0.511844 2.51503L0.5 0L235.32 0.297602C236.637 2.31663 238.778 3.60624 241.2 3.83382C241.461 3.85716 241.724 3.87175 241.991 3.86883C244.703 3.85716 247.185 2.50336 248.63 0.242167L307.933 0L307.945 2.51503C304.632 4.11975 302.523 6.45468 302.538 10.1134C302.553 13.7693 304.691 17.0867 308.016 18.6651L308.04 24.4713C304.727 26.076 302.618 29.4109 302.633 33.0668C302.648 36.7226 304.786 40.04 308.111 41.6185L308.135 47.4334C304.824 49.0381 302.713 52.3701 302.728 56.0317C302.743 59.6905 304.88 63.005 308.206 64.5834L308.229 70.3896C304.916 71.9943 302.808 75.3292 302.823 78.9851C302.837 82.6409 304.975 85.9583 308.301 87.5368L308.312 90.043L249.009 90.2852C247.694 88.2662 245.55 86.9766 243.128 86.749C242.867 86.7257 242.604 86.7111 242.337 86.714C239.628 86.7257 237.144 88.0794 235.699 90.3406L0.876056 91.043L0.864212 88.5367H0.867173Z" fill="#BB8643"/>
</svg>
