<svg width="235" height="92" viewBox="0 0 235 92" fill="none" xmlns="http://www.w3.org/2000/svg">
<path d="M0.367173 89.4937C3.68061 87.889 5.78889 84.5541 5.77409 80.8983C5.75928 77.2395 3.62139 73.925 0.296107 72.3466L0.272419 66.5404C3.58586 64.9357 5.69414 61.6008 5.67933 57.9449C5.66453 54.2862 3.52664 50.9688 0.201353 49.3903L0.177664 43.5754C3.4911 41.9707 5.59938 38.6358 5.58458 34.98C5.56977 31.3241 3.43188 28.0067 0.106599 26.4283L0.08291 20.6221C3.39635 19.0174 5.50463 15.6825 5.48983 12.0266C5.47502 8.36788 3.33713 5.05049 0.0118443 3.47203L0 0.956996L161.319 0.297602C162.637 2.31663 164.778 3.60624 167.2 3.83382C167.46 3.85716 167.724 3.87175 167.99 3.86883C170.703 3.85716 173.184 2.50336 174.629 0.242167L233.933 0L233.945 2.51503C230.632 4.11975 228.524 7.45465 228.538 11.1134C228.553 14.7692 230.691 18.0866 234.016 19.6651L234.04 25.4713C230.727 27.076 228.618 30.4109 228.633 34.0667C228.648 37.7226 230.786 41.04 234.111 42.6184L234.135 48.4333C230.824 50.0381 228.713 53.37 228.728 57.0317C228.743 60.6905 230.881 64.0049 234.206 65.5834L234.23 71.3896C230.916 72.9943 228.808 76.3292 228.823 79.985C228.837 83.6409 230.975 86.9583 234.301 88.5367L234.312 91.043L175.008 91.2852C173.693 89.2661 171.55 87.9765 169.127 87.749C168.867 87.7256 168.603 87.711 168.337 87.7139C165.628 87.7256 163.143 89.0794 161.698 91.3406L0.376056 92L0.364212 89.4937H0.367173Z" fill="#FCFBF8"/>
<line x1="166.32" y1="11" x2="166.32" y2="81.8506" stroke="#BB8643" stroke-dasharray="5 5"/>
<path d="M33.6716 23.736L33.1196 23.832C32.8556 20.4 31.3436 18.648 28.9196 18.648C24.9356 18.648 22.2236 23.064 21.5036 27.624C20.7356 32.448 22.1996 37.44 26.7356 37.44C28.8716 37.44 30.5996 36.336 31.9916 34.056L32.4716 34.248C30.5996 37.656 28.0556 39.408 24.9836 39.408C19.7036 39.408 17.9276 34.032 18.7676 28.656C19.6316 23.232 23.1836 17.784 28.6316 17.784C30.8396 17.784 31.9676 18.744 32.8556 18.744C33.2876 18.744 33.5756 18.456 33.7676 17.784H34.2716L33.6716 23.736ZM37.029 34.704C36.693 36.792 37.077 37.8 38.229 37.8C39.693 37.8 41.229 36.168 42.477 33.36L43.149 29.088C43.365 27.768 43.173 27.048 42.381 27.048C42.189 27.048 41.949 27.096 41.685 27.168L41.589 26.616L46.173 25.008L44.421 36.096C44.397 36.312 44.277 37.056 44.325 37.488C44.373 37.872 44.541 38.064 44.805 38.064C45.093 38.064 45.477 37.848 45.813 37.512C45.813 37.512 45.981 37.344 46.125 37.128L46.557 37.464C45.789 38.496 44.829 39.408 43.437 39.408C42.621 39.408 42.021 39 41.901 38.304C41.829 37.896 41.853 37.272 41.997 36.384L42.189 35.136C40.941 37.704 38.877 39.408 36.885 39.408C34.917 39.408 34.149 37.752 34.653 34.608L35.661 28.32C35.685 28.104 35.781 27.36 35.733 26.904C35.685 26.544 35.541 26.352 35.277 26.352C34.773 26.352 34.221 26.88 33.957 27.288L33.525 26.952C34.293 25.92 35.253 25.008 36.621 25.008C37.461 25.008 38.037 25.416 38.181 26.136C38.253 26.544 38.229 27.168 38.085 28.032L37.029 34.704ZM53.688 17.784L50.784 36.096C50.76 36.312 50.664 37.056 50.712 37.512C50.76 37.896 50.904 38.064 51.168 38.064C51.456 38.064 51.864 37.848 52.128 37.584C52.2 37.512 52.344 37.344 52.488 37.128L52.92 37.464C52.512 38.016 52.152 38.4 51.792 38.688C51.192 39.168 50.496 39.408 49.824 39.408C48.984 39.408 48.408 39 48.264 38.28C48.192 37.872 48.216 37.248 48.36 36.384L50.664 21.864C50.928 20.232 50.592 19.512 49.2 19.944L49.08 19.392L53.688 17.784ZM58.4612 20.04C59.3492 20.04 59.9732 20.784 59.8292 21.72C59.6852 22.632 58.8212 23.376 57.9332 23.376C57.0212 23.376 56.3732 22.632 56.5172 21.72C56.6612 20.784 57.5492 20.04 58.4612 20.04ZM59.0612 37.128L59.4932 37.464C59.0852 38.016 58.7252 38.4 58.3652 38.688C57.7412 39.168 57.0212 39.408 56.3732 39.408C55.5332 39.408 54.9572 39 54.8372 38.304C54.7652 37.896 54.7892 37.272 54.9332 36.384L56.0852 29.088C56.3492 27.456 56.0132 26.736 54.6212 27.168L54.5252 26.616L59.1092 25.008L57.3572 36.096C57.3332 36.312 57.2132 37.032 57.2612 37.488C57.3092 37.848 57.4772 38.064 57.7412 38.064C58.0292 38.064 58.4132 37.848 58.7492 37.512C58.7492 37.512 58.9172 37.344 59.0612 37.128ZM70.1766 29.712C70.5126 27.624 70.1286 26.616 68.9766 26.616C67.3686 26.616 65.6646 28.608 64.3686 31.944L63.2646 39H60.8886L62.4246 29.088C62.6886 27.456 62.3526 26.736 60.9606 27.168L60.8646 26.616L65.4486 25.008L64.6566 30.072C65.8566 27.072 68.1126 25.008 70.3206 25.008C72.3126 25.008 73.0566 26.664 72.5526 29.808L71.5446 36.096C71.5206 36.312 71.4246 37.056 71.4726 37.512C71.5206 37.896 71.6646 38.064 71.9286 38.064C72.2166 38.064 72.6006 37.848 72.8646 37.584C72.9366 37.512 73.1046 37.344 73.2486 37.128L73.6806 37.464C73.2726 38.016 72.9126 38.4 72.5526 38.688C71.9526 39.168 71.2566 39.408 70.5846 39.408C69.7446 39.408 69.1686 39 69.0246 38.28C68.9526 37.872 68.9766 37.248 69.1206 36.384L70.1766 29.712ZM84.5934 26.16L87.1614 25.008L85.4094 36.096C85.3854 36.312 85.2894 37.056 85.3374 37.512C85.3854 37.872 85.5294 38.064 85.7934 38.064C86.0814 38.064 86.4894 37.848 86.7294 37.584C86.8014 37.512 86.9694 37.344 87.1134 37.128L87.5454 37.464C87.1374 38.016 86.7774 38.4 86.4174 38.688C85.8174 39.144 85.1214 39.408 84.4494 39.408C83.6094 39.408 83.0334 39 82.8894 38.28C82.8174 37.872 82.8414 37.248 82.9854 36.384L83.1294 35.448C82.0014 37.368 80.3454 39.408 77.9934 39.408C71.7294 39.408 74.7774 25.008 81.8814 25.008C82.9374 25.008 83.7534 25.344 84.5934 26.16ZM83.4414 33.528L84.3534 27.72C83.9454 26.4 83.2494 25.8 82.1934 25.8C79.9374 25.8 77.8734 28.608 77.3214 32.448C76.9134 35.304 77.8014 37.56 79.3134 37.56C80.6334 37.56 82.3374 35.856 83.4414 33.528ZM88.9183 39L90.4783 29.088C90.6943 27.696 90.4543 27.048 89.7103 27.048C89.4943 27.048 89.2783 27.096 89.0143 27.168L88.9183 26.616L93.5023 25.008L92.7583 29.76C93.9103 26.64 95.6383 25.008 97.6303 25.008C100.294 25.008 99.9343 28.176 97.9423 28.176C96.8623 28.176 96.8623 27.24 96.4303 26.856C96.3103 26.76 96.1903 26.712 96.0223 26.712C95.8783 26.712 95.6863 26.76 95.4943 26.856C94.4863 27.384 93.5743 28.872 92.3983 31.992L91.2943 39H88.9183ZM100.252 26.832L100.156 26.28L103.948 25.008C105.268 27.792 106.228 31.824 107.212 36.072C108.268 34.248 109.9 31.752 110.572 30.24C111.196 28.896 111.076 28.272 110.212 27.744C109.444 27.264 109.108 26.592 109.396 25.848C109.684 25.128 110.38 24.816 111.1 25.104C111.82 25.368 112.276 26.112 112.3 27.024C112.372 29.784 108.508 34.8 105.916 39.552C105.148 40.992 104.548 42.288 103.372 44.544C102.604 46.152 100.444 44.856 101.452 43.608L105.412 39.096C104.284 34.512 103.396 30.216 102.364 27.816C101.908 26.736 101.092 26.568 100.252 26.832ZM20.7116 46.784H26.6876C32.7836 46.784 35.8316 50.936 34.7996 57.368C33.7916 63.776 29.4236 68 23.4236 68H17.3516L17.4236 67.472C19.2956 67.16 19.3196 66.032 19.5356 64.736L21.8396 50.048C22.0556 48.752 22.3676 47.624 20.6396 47.312L20.7116 46.784ZM26.4956 47.504C25.9196 47.504 25.2956 47.576 24.6956 47.696L21.6476 66.896C22.2716 67.16 22.7996 67.28 23.6156 67.28C28.0556 67.28 31.0796 63.728 32.0156 57.92C32.9756 51.776 30.8636 47.504 26.4956 47.504ZM45.6489 63.32L46.1289 63.416C45.0249 66.512 42.7689 68.408 40.1049 68.408C36.8169 68.408 34.9449 65.552 35.6169 61.352C36.2889 57.08 39.1689 54.008 42.6249 54.008C44.8089 54.008 46.3689 55.208 46.3689 56.888C46.3689 57.512 46.1529 58.16 45.7209 58.784C44.5689 60.512 42.2649 61.472 37.7289 62.024C37.9449 64.496 39.3609 66.176 41.4969 66.176C43.1769 66.176 44.6649 65.168 45.6489 63.32ZM43.5129 58.496C44.1609 57.392 44.1849 56.336 43.7769 55.616C43.4409 55.016 42.8409 54.704 42.1209 54.704C41.7849 54.704 41.4249 54.776 41.0649 54.92C38.6409 55.88 37.6809 59.072 37.6809 61.496C40.5609 61.112 42.5769 60.056 43.5129 58.496ZM56.5132 64.4C56.1292 66.824 53.8732 68.408 50.8012 68.408C48.4012 68.408 46.7692 67.448 46.7692 66.08C46.7692 65.288 47.3212 64.76 48.0892 64.76C48.8572 64.76 49.3852 65.264 49.5292 66.176C49.6972 67.184 50.3452 67.688 51.4972 67.688C52.9372 67.688 53.9452 66.896 54.1372 65.648C54.7372 61.952 47.2732 62.264 47.9932 57.728C48.3532 55.448 50.4412 54.008 53.3932 54.008C55.5772 54.008 56.9692 54.824 56.9692 56.12C56.9692 56.984 56.3452 57.416 55.6492 57.416C55.0492 57.416 54.3772 57.08 54.2092 56C54.0652 55.088 53.5852 54.728 52.7692 54.728C51.4732 54.728 50.3452 55.616 50.1532 56.792C49.6492 60.032 57.2572 59.648 56.5132 64.4ZM63.6478 50.528L63.0478 54.32H66.0958L65.9998 54.992H62.9518L61.4398 64.448C61.1998 65.984 61.5838 66.704 62.6638 66.704C63.4078 66.704 63.9838 66.344 64.4158 65.6L64.8958 65.744C64.2718 67.352 62.8558 68.408 61.3198 68.408C59.5438 68.408 58.6558 67.016 59.0398 64.736L60.5758 54.992H58.5358L58.6318 54.344C60.5038 54.2 61.9438 52.952 62.9998 50.528H63.6478ZM70.8943 49.04C71.7823 49.04 72.4063 49.784 72.2623 50.72C72.1183 51.632 71.2543 52.376 70.3663 52.376C69.4543 52.376 68.8063 51.632 68.9503 50.72C69.0943 49.784 69.9823 49.04 70.8943 49.04ZM71.4943 66.128L71.9263 66.464C71.5183 67.016 71.1583 67.4 70.7983 67.688C70.1743 68.168 69.4543 68.408 68.8063 68.408C67.9663 68.408 67.3903 68 67.2703 67.304C67.1983 66.896 67.2223 66.272 67.3663 65.384L68.5183 58.088C68.7823 56.456 68.4463 55.736 67.0543 56.168L66.9583 55.616L71.5423 54.008L69.7903 65.096C69.7663 65.312 69.6463 66.032 69.6943 66.488C69.7423 66.848 69.9103 67.064 70.1743 67.064C70.4623 67.064 70.8463 66.848 71.1823 66.512C71.1823 66.512 71.3503 66.344 71.4943 66.128ZM82.6097 58.712C82.9457 56.624 82.5617 55.616 81.4097 55.616C79.8017 55.616 78.0977 57.608 76.8017 60.944L75.6977 68H73.3217L74.8577 58.088C75.1217 56.456 74.7857 55.736 73.3937 56.168L73.2977 55.616L77.8817 54.008L77.0897 59.072C78.2897 56.072 80.5457 54.008 82.7537 54.008C84.7457 54.008 85.4897 55.664 84.9857 58.808L83.9777 65.096C83.9537 65.312 83.8577 66.056 83.9057 66.512C83.9537 66.896 84.0977 67.064 84.3617 67.064C84.6497 67.064 85.0337 66.848 85.2977 66.584C85.3697 66.512 85.5377 66.344 85.6817 66.128L86.1137 66.464C85.7057 67.016 85.3457 67.4 84.9857 67.688C84.3857 68.168 83.6897 68.408 83.0177 68.408C82.1777 68.408 81.6017 68 81.4577 67.28C81.3857 66.872 81.4097 66.248 81.5537 65.384L82.6097 58.712ZM97.0266 55.16L99.5946 54.008L97.8426 65.096C97.8186 65.312 97.7226 66.056 97.7706 66.512C97.8186 66.872 97.9626 67.064 98.2266 67.064C98.5146 67.064 98.9226 66.848 99.1626 66.584C99.2346 66.512 99.4026 66.344 99.5466 66.128L99.9786 66.464C99.5706 67.016 99.2106 67.4 98.8506 67.688C98.2506 68.144 97.5546 68.408 96.8826 68.408C96.0426 68.408 95.4666 68 95.3226 67.28C95.2506 66.872 95.2746 66.248 95.4186 65.384L95.5626 64.448C94.4346 66.368 92.7786 68.408 90.4266 68.408C84.1626 68.408 87.2106 54.008 94.3146 54.008C95.3706 54.008 96.1866 54.344 97.0266 55.16ZM95.8746 62.528L96.7866 56.72C96.3786 55.4 95.6826 54.8 94.6266 54.8C92.3706 54.8 90.3066 57.608 89.7546 61.448C89.3466 64.304 90.2346 66.56 91.7466 66.56C93.0666 66.56 94.7706 64.856 95.8746 62.528ZM106.466 50.528L105.866 54.32H108.914L108.818 54.992H105.77L104.258 64.448C104.018 65.984 104.402 66.704 105.482 66.704C106.226 66.704 106.802 66.344 107.234 65.6L107.714 65.744C107.09 67.352 105.674 68.408 104.138 68.408C102.362 68.408 101.474 67.016 101.858 64.736L103.394 54.992H101.354L101.45 54.344C103.322 54.2 104.762 52.952 105.818 50.528H106.466ZM113.713 49.04C114.601 49.04 115.225 49.784 115.081 50.72C114.937 51.632 114.073 52.376 113.185 52.376C112.273 52.376 111.625 51.632 111.769 50.72C111.913 49.784 112.801 49.04 113.713 49.04ZM114.313 66.128L114.745 66.464C114.337 67.016 113.977 67.4 113.617 67.688C112.993 68.168 112.273 68.408 111.625 68.408C110.785 68.408 110.209 68 110.089 67.304C110.017 66.896 110.041 66.272 110.185 65.384L111.337 58.088C111.601 56.456 111.265 55.736 109.873 56.168L109.777 55.616L114.361 54.008L112.609 65.096C112.585 65.312 112.465 66.032 112.513 66.488C112.561 66.848 112.729 67.064 112.993 67.064C113.281 67.064 113.665 66.848 114.001 66.512C114.001 66.512 114.169 66.344 114.313 66.128ZM120.121 68.408C116.137 68.408 114.889 64.808 115.489 61.064C116.089 57.296 118.441 54.008 122.401 54.008C126.361 54.008 127.705 57.296 127.105 61.064C126.505 64.808 124.105 68.408 120.121 68.408ZM120.241 67.712C122.857 67.712 124.105 63.104 124.441 61.088C124.753 59.024 124.945 54.704 122.305 54.704C119.665 54.704 118.465 59.024 118.153 61.088C117.817 63.104 117.625 67.712 120.241 67.712ZM137.791 58.712C138.127 56.624 137.743 55.616 136.591 55.616C134.983 55.616 133.279 57.608 131.983 60.944L130.879 68H128.503L130.039 58.088C130.303 56.456 129.967 55.736 128.575 56.168L128.479 55.616L133.063 54.008L132.271 59.072C133.471 56.072 135.727 54.008 137.935 54.008C139.927 54.008 140.671 55.664 140.167 58.808L139.159 65.096C139.135 65.312 139.039 66.056 139.087 66.512C139.135 66.896 139.279 67.064 139.543 67.064C139.831 67.064 140.215 66.848 140.479 66.584C140.551 66.512 140.719 66.344 140.863 66.128L141.295 66.464C140.887 67.016 140.527 67.4 140.167 67.688C139.567 68.168 138.871 68.408 138.199 68.408C137.359 68.408 136.783 68 136.639 67.28C136.567 66.872 136.591 66.248 136.735 65.384L137.791 58.712ZM151.677 64.4C151.293 66.824 149.037 68.408 145.965 68.408C143.565 68.408 141.933 67.448 141.933 66.08C141.933 65.288 142.485 64.76 143.253 64.76C144.021 64.76 144.549 65.264 144.693 66.176C144.861 67.184 145.509 67.688 146.661 67.688C148.101 67.688 149.109 66.896 149.301 65.648C149.901 61.952 142.437 62.264 143.157 57.728C143.517 55.448 145.605 54.008 148.557 54.008C150.741 54.008 152.133 54.824 152.133 56.12C152.133 56.984 151.509 57.416 150.813 57.416C150.213 57.416 149.541 57.08 149.373 56C149.229 55.088 148.749 54.728 147.933 54.728C146.637 54.728 145.509 55.616 145.317 56.792C144.813 60.032 152.421 59.648 151.677 64.4Z" fill="#BB8643"/>
<g clip-path="url(#clip0_613_18935)">
<path d="M210.067 51.4443H182.933L179.545 39.2109H213.465L210.067 51.4443Z" stroke="#BB8643" stroke-linejoin="round"/>
<path d="M194.716 39.5665C194.652 38.922 194.589 38.2776 194.674 37.6331C194.758 36.9887 194.991 36.3554 195.446 35.9109C195.732 35.6443 196.082 35.4665 196.442 35.322C196.198 33.8331 196.674 32.1998 197.754 31.1998C198.834 30.1998 200.539 29.9443 201.767 30.7443C202.074 29.822 202.952 29.2443 203.842 28.9443C205.271 28.4554 206.891 28.5443 208.203 29.2887C209.516 30.0331 210.49 31.4776 210.596 33.0554C211.814 33.5109 212.925 34.4443 213.338 35.7331C213.751 37.022 213.275 38.6331 212.11 39.2331" stroke="#BB8643" stroke-linejoin="round"/>
<path d="M201.322 34.378C201.269 34.0669 201.47 33.7891 201.693 33.578C201.862 33.4113 202.042 33.2669 202.243 33.1558C202.836 32.8336 203.577 32.8447 204.159 33.178" stroke="#BB8643" stroke-linejoin="round"/>
<path d="M205.663 36.2557C206.51 35.8002 207.569 35.8002 208.426 36.2557C208.765 36.4335 209.093 36.7113 209.188 37.1002" stroke="#BB8643" stroke-linejoin="round"/>
<path d="M208.415 43.9556L206.647 51.4445" stroke="#BB8643" stroke-linejoin="round"/>
<path d="M187.358 34.2221C187.708 34.6999 188.227 35.0332 188.788 35.1555C189.349 35.2777 189.952 35.1555 190.45 34.8666C190.863 33.1221 191.244 31.3332 191.646 29.5888C191.699 29.3666 191.752 29.1332 191.868 28.9332C192.059 28.5999 192.398 28.3777 192.715 28.1777C193.001 27.9999 193.276 27.811 193.478 27.5332C193.859 26.9666 193.721 26.0999 193.192 25.6888C192.662 25.2777 191.826 25.411 191.434 25.9666C191.265 25.5443 191.074 25.1221 190.736 24.8332C190.397 24.5443 189.889 24.4443 189.529 24.6999C189.19 24.9555 189.095 25.4443 189.095 25.8777C189.095 26.2999 189.169 26.7221 189.306 27.1221C189.38 27.3555 189.476 27.5777 189.486 27.8221C189.486 28.011 189.455 28.1888 189.412 28.3777C188.925 30.3888 188.004 32.2666 187.358 34.2221Z" stroke="#BB8643" stroke-linejoin="round"/>
<path d="M188.523 30.5222C187.369 30.4222 186.162 30.3444 185.093 30.8111C184.574 31.0333 184.119 31.3889 183.674 31.7555C182.658 32.6111 181.726 33.6111 181.133 34.8333C180.541 36.0555 180.308 37.5 180.689 38.8" stroke="#BB8643" stroke-linejoin="round"/>
<path d="M191.582 30.8779C191.889 30.9113 192.143 31.1224 192.366 31.3446C193.7 32.6446 194.716 34.3002 195.277 36.1224" stroke="#BB8643" stroke-linejoin="round"/>
</g>
<line x1="190.016" y1="63.3887" x2="203.016" y2="63.3887" stroke="#BB8643"/>
<path d="M204.354 63.3539C203.782 63.3539 203.216 63.2413 202.687 63.0225C202.159 62.8036 201.679 62.4829 201.275 62.0787C200.871 61.6744 200.55 61.1944 200.331 60.6662C200.112 60.1379 200 59.5718 200 59" stroke="#BB8643"/>
<path d="M204.354 63.3537C203.782 63.3537 203.216 63.4663 202.687 63.6851C202.159 63.9039 201.679 64.2246 201.275 64.6289C200.871 65.0332 200.55 65.5131 200.331 66.0414C200.112 66.5696 200 67.1358 200 67.7075" stroke="#BB8643"/>
<mask id="mask0_613_18935" style="mask-type:alpha" maskUnits="userSpaceOnUse" x="0" y="-3" width="236" height="97">
<rect y="-3" width="236" height="97" fill="#D9D9D9"/>
</mask>
<g mask="url(#mask0_613_18935)">
<path d="M0.367173 89.4937C3.68061 87.889 5.78889 84.5541 5.77409 80.8983C5.75928 77.2395 3.62139 73.925 0.296107 72.3466L0.272419 66.5404C3.58586 64.9357 5.69414 61.6008 5.67933 57.9449C5.66453 54.2862 3.52664 50.9688 0.201353 49.3903L0.177664 43.5754C3.4911 41.9707 5.59938 38.6358 5.58458 34.98C5.56977 31.3241 3.43188 28.0067 0.106599 26.4283L0.08291 20.6221C3.39635 19.0174 5.50463 15.6825 5.48983 12.0266C5.47502 8.36788 3.33713 5.05049 0.0118443 3.47203L0 0.956996L161.319 0.297602C162.637 2.31663 164.778 3.60624 167.2 3.83382C167.46 3.85716 167.724 3.87175 167.99 3.86883C170.703 3.85716 173.184 2.50336 174.629 0.242167L233.933 0L233.945 2.51503C230.632 4.11975 228.524 7.45465 228.538 11.1134C228.553 14.7692 230.691 18.0866 234.016 19.6651L234.04 25.4713C230.727 27.076 228.618 30.4109 228.633 34.0667C228.648 37.7226 230.786 41.04 234.111 42.6184L234.135 48.4333C230.824 50.0381 228.713 53.37 228.728 57.0317C228.743 60.6905 230.881 64.0049 234.206 65.5834L234.23 71.3896C230.916 72.9943 228.808 76.3292 228.823 79.985C228.837 83.6409 230.975 86.9583 234.301 88.5367L234.312 91.043L175.008 91.2852C173.693 89.2661 171.55 87.9765 169.127 87.749C168.867 87.7256 168.603 87.711 168.337 87.7139C165.628 87.7256 163.143 89.0794 161.698 91.3406L0.376056 92L0.364212 89.4937H0.367173Z" fill="#BB8643"/>
<g clip-path="url(#clip1_613_18935)">
<path d="M210.067 51.4443H182.933L179.545 39.2109H213.465L210.067 51.4443Z" stroke="#FCFBF8" stroke-linejoin="round"/>
<path d="M194.716 39.5665C194.652 38.922 194.589 38.2776 194.674 37.6331C194.758 36.9887 194.991 36.3554 195.446 35.9109C195.732 35.6443 196.082 35.4665 196.442 35.322C196.198 33.8331 196.674 32.1998 197.754 31.1998C198.834 30.1998 200.539 29.9443 201.767 30.7443C202.074 29.822 202.952 29.2443 203.842 28.9443C205.271 28.4554 206.891 28.5443 208.203 29.2887C209.516 30.0331 210.49 31.4776 210.596 33.0554C211.814 33.5109 212.925 34.4443 213.338 35.7331C213.751 37.022 213.275 38.6331 212.11 39.2331" stroke="#FCFBF8" stroke-linejoin="round"/>
<path d="M201.322 34.378C201.269 34.0669 201.47 33.7891 201.693 33.578C201.862 33.4113 202.042 33.2669 202.243 33.1558C202.836 32.8336 203.577 32.8447 204.159 33.178" stroke="#FCFBF8" stroke-linejoin="round"/>
<path d="M205.663 36.2557C206.51 35.8002 207.569 35.8002 208.426 36.2557C208.765 36.4335 209.093 36.7113 209.188 37.1002" stroke="#FCFBF8" stroke-linejoin="round"/>
<path d="M208.415 43.9556L206.647 51.4445" stroke="#FCFBF8" stroke-linejoin="round"/>
<path d="M187.358 34.2221C187.708 34.6999 188.227 35.0332 188.788 35.1555C189.349 35.2777 189.952 35.1555 190.45 34.8666C190.863 33.1221 191.244 31.3332 191.646 29.5888C191.699 29.3666 191.752 29.1332 191.868 28.9332C192.059 28.5999 192.398 28.3777 192.715 28.1777C193.001 27.9999 193.276 27.811 193.478 27.5332C193.859 26.9666 193.721 26.0999 193.192 25.6888C192.662 25.2777 191.826 25.411 191.434 25.9666C191.265 25.5443 191.074 25.1221 190.736 24.8332C190.397 24.5443 189.889 24.4443 189.529 24.6999C189.19 24.9555 189.095 25.4443 189.095 25.8777C189.095 26.2999 189.169 26.7221 189.306 27.1221C189.38 27.3555 189.476 27.5777 189.486 27.8221C189.486 28.011 189.455 28.1888 189.412 28.3777C188.925 30.3888 188.004 32.2666 187.358 34.2221Z" stroke="#FCFBF8" stroke-linejoin="round"/>
<path d="M188.523 30.5222C187.369 30.4222 186.162 30.3444 185.093 30.8111C184.574 31.0333 184.119 31.3889 183.674 31.7555C182.658 32.6111 181.726 33.6111 181.133 34.8333C180.541 36.0555 180.308 37.5 180.689 38.8" stroke="#FCFBF8" stroke-linejoin="round"/>
<path d="M191.582 30.8779C191.889 30.9113 192.143 31.1224 192.366 31.3446C193.7 32.6446 194.716 34.3002 195.277 36.1224" stroke="#FCFBF8" stroke-linejoin="round"/>
</g>
<line x1="190.016" y1="63.3887" x2="203.016" y2="63.3887" stroke="#FCFBF8"/>
<path d="M204.354 63.3539C203.782 63.3539 203.216 63.2413 202.687 63.0225C202.159 62.8036 201.679 62.4829 201.275 62.0787C200.871 61.6744 200.55 61.1944 200.331 60.6662C200.112 60.1379 200 59.5718 200 59" stroke="#FCFBF8"/>
<path d="M204.354 63.3537C203.782 63.3537 203.216 63.4663 202.687 63.6851C202.159 63.9039 201.679 64.2246 201.275 64.6289C200.871 65.0332 200.55 65.5131 200.331 66.0414C200.112 66.5696 200 67.1358 200 67.7075" stroke="#FCFBF8"/>
<line x1="166.32" y1="11" x2="166.32" y2="81.8506" stroke="#FCFBF8" stroke-dasharray="5 5"/>
<path d="M33.6716 23.736L33.1196 23.832C32.8556 20.4 31.3436 18.648 28.9196 18.648C24.9356 18.648 22.2236 23.064 21.5036 27.624C20.7356 32.448 22.1996 37.44 26.7356 37.44C28.8716 37.44 30.5996 36.336 31.9916 34.056L32.4716 34.248C30.5996 37.656 28.0556 39.408 24.9836 39.408C19.7036 39.408 17.9276 34.032 18.7676 28.656C19.6316 23.232 23.1836 17.784 28.6316 17.784C30.8396 17.784 31.9676 18.744 32.8556 18.744C33.2876 18.744 33.5756 18.456 33.7676 17.784H34.2716L33.6716 23.736ZM37.029 34.704C36.693 36.792 37.077 37.8 38.229 37.8C39.693 37.8 41.229 36.168 42.477 33.36L43.149 29.088C43.365 27.768 43.173 27.048 42.381 27.048C42.189 27.048 41.949 27.096 41.685 27.168L41.589 26.616L46.173 25.008L44.421 36.096C44.397 36.312 44.277 37.056 44.325 37.488C44.373 37.872 44.541 38.064 44.805 38.064C45.093 38.064 45.477 37.848 45.813 37.512C45.813 37.512 45.981 37.344 46.125 37.128L46.557 37.464C45.789 38.496 44.829 39.408 43.437 39.408C42.621 39.408 42.021 39 41.901 38.304C41.829 37.896 41.853 37.272 41.997 36.384L42.189 35.136C40.941 37.704 38.877 39.408 36.885 39.408C34.917 39.408 34.149 37.752 34.653 34.608L35.661 28.32C35.685 28.104 35.781 27.36 35.733 26.904C35.685 26.544 35.541 26.352 35.277 26.352C34.773 26.352 34.221 26.88 33.957 27.288L33.525 26.952C34.293 25.92 35.253 25.008 36.621 25.008C37.461 25.008 38.037 25.416 38.181 26.136C38.253 26.544 38.229 27.168 38.085 28.032L37.029 34.704ZM53.688 17.784L50.784 36.096C50.76 36.312 50.664 37.056 50.712 37.512C50.76 37.896 50.904 38.064 51.168 38.064C51.456 38.064 51.864 37.848 52.128 37.584C52.2 37.512 52.344 37.344 52.488 37.128L52.92 37.464C52.512 38.016 52.152 38.4 51.792 38.688C51.192 39.168 50.496 39.408 49.824 39.408C48.984 39.408 48.408 39 48.264 38.28C48.192 37.872 48.216 37.248 48.36 36.384L50.664 21.864C50.928 20.232 50.592 19.512 49.2 19.944L49.08 19.392L53.688 17.784ZM58.4612 20.04C59.3492 20.04 59.9732 20.784 59.8292 21.72C59.6852 22.632 58.8212 23.376 57.9332 23.376C57.0212 23.376 56.3732 22.632 56.5172 21.72C56.6612 20.784 57.5492 20.04 58.4612 20.04ZM59.0612 37.128L59.4932 37.464C59.0852 38.016 58.7252 38.4 58.3652 38.688C57.7412 39.168 57.0212 39.408 56.3732 39.408C55.5332 39.408 54.9572 39 54.8372 38.304C54.7652 37.896 54.7892 37.272 54.9332 36.384L56.0852 29.088C56.3492 27.456 56.0132 26.736 54.6212 27.168L54.5252 26.616L59.1092 25.008L57.3572 36.096C57.3332 36.312 57.2132 37.032 57.2612 37.488C57.3092 37.848 57.4772 38.064 57.7412 38.064C58.0292 38.064 58.4132 37.848 58.7492 37.512C58.7492 37.512 58.9172 37.344 59.0612 37.128ZM70.1766 29.712C70.5126 27.624 70.1286 26.616 68.9766 26.616C67.3686 26.616 65.6646 28.608 64.3686 31.944L63.2646 39H60.8886L62.4246 29.088C62.6886 27.456 62.3526 26.736 60.9606 27.168L60.8646 26.616L65.4486 25.008L64.6566 30.072C65.8566 27.072 68.1126 25.008 70.3206 25.008C72.3126 25.008 73.0566 26.664 72.5526 29.808L71.5446 36.096C71.5206 36.312 71.4246 37.056 71.4726 37.512C71.5206 37.896 71.6646 38.064 71.9286 38.064C72.2166 38.064 72.6006 37.848 72.8646 37.584C72.9366 37.512 73.1046 37.344 73.2486 37.128L73.6806 37.464C73.2726 38.016 72.9126 38.4 72.5526 38.688C71.9526 39.168 71.2566 39.408 70.5846 39.408C69.7446 39.408 69.1686 39 69.0246 38.28C68.9526 37.872 68.9766 37.248 69.1206 36.384L70.1766 29.712ZM84.5934 26.16L87.1614 25.008L85.4094 36.096C85.3854 36.312 85.2894 37.056 85.3374 37.512C85.3854 37.872 85.5294 38.064 85.7934 38.064C86.0814 38.064 86.4894 37.848 86.7294 37.584C86.8014 37.512 86.9694 37.344 87.1134 37.128L87.5454 37.464C87.1374 38.016 86.7774 38.4 86.4174 38.688C85.8174 39.144 85.1214 39.408 84.4494 39.408C83.6094 39.408 83.0334 39 82.8894 38.28C82.8174 37.872 82.8414 37.248 82.9854 36.384L83.1294 35.448C82.0014 37.368 80.3454 39.408 77.9934 39.408C71.7294 39.408 74.7774 25.008 81.8814 25.008C82.9374 25.008 83.7534 25.344 84.5934 26.16ZM83.4414 33.528L84.3534 27.72C83.9454 26.4 83.2494 25.8 82.1934 25.8C79.9374 25.8 77.8734 28.608 77.3214 32.448C76.9134 35.304 77.8014 37.56 79.3134 37.56C80.6334 37.56 82.3374 35.856 83.4414 33.528ZM88.9183 39L90.4783 29.088C90.6943 27.696 90.4543 27.048 89.7103 27.048C89.4943 27.048 89.2783 27.096 89.0143 27.168L88.9183 26.616L93.5023 25.008L92.7583 29.76C93.9103 26.64 95.6383 25.008 97.6303 25.008C100.294 25.008 99.9343 28.176 97.9423 28.176C96.8623 28.176 96.8623 27.24 96.4303 26.856C96.3103 26.76 96.1903 26.712 96.0223 26.712C95.8783 26.712 95.6863 26.76 95.4943 26.856C94.4863 27.384 93.5743 28.872 92.3983 31.992L91.2943 39H88.9183ZM100.252 26.832L100.156 26.28L103.948 25.008C105.268 27.792 106.228 31.824 107.212 36.072C108.268 34.248 109.9 31.752 110.572 30.24C111.196 28.896 111.076 28.272 110.212 27.744C109.444 27.264 109.108 26.592 109.396 25.848C109.684 25.128 110.38 24.816 111.1 25.104C111.82 25.368 112.276 26.112 112.3 27.024C112.372 29.784 108.508 34.8 105.916 39.552C105.148 40.992 104.548 42.288 103.372 44.544C102.604 46.152 100.444 44.856 101.452 43.608L105.412 39.096C104.284 34.512 103.396 30.216 102.364 27.816C101.908 26.736 101.092 26.568 100.252 26.832ZM20.7116 46.784H26.6876C32.7836 46.784 35.8316 50.936 34.7996 57.368C33.7916 63.776 29.4236 68 23.4236 68H17.3516L17.4236 67.472C19.2956 67.16 19.3196 66.032 19.5356 64.736L21.8396 50.048C22.0556 48.752 22.3676 47.624 20.6396 47.312L20.7116 46.784ZM26.4956 47.504C25.9196 47.504 25.2956 47.576 24.6956 47.696L21.6476 66.896C22.2716 67.16 22.7996 67.28 23.6156 67.28C28.0556 67.28 31.0796 63.728 32.0156 57.92C32.9756 51.776 30.8636 47.504 26.4956 47.504ZM45.6489 63.32L46.1289 63.416C45.0249 66.512 42.7689 68.408 40.1049 68.408C36.8169 68.408 34.9449 65.552 35.6169 61.352C36.2889 57.08 39.1689 54.008 42.6249 54.008C44.8089 54.008 46.3689 55.208 46.3689 56.888C46.3689 57.512 46.1529 58.16 45.7209 58.784C44.5689 60.512 42.2649 61.472 37.7289 62.024C37.9449 64.496 39.3609 66.176 41.4969 66.176C43.1769 66.176 44.6649 65.168 45.6489 63.32ZM43.5129 58.496C44.1609 57.392 44.1849 56.336 43.7769 55.616C43.4409 55.016 42.8409 54.704 42.1209 54.704C41.7849 54.704 41.4249 54.776 41.0649 54.92C38.6409 55.88 37.6809 59.072 37.6809 61.496C40.5609 61.112 42.5769 60.056 43.5129 58.496ZM56.5132 64.4C56.1292 66.824 53.8732 68.408 50.8012 68.408C48.4012 68.408 46.7692 67.448 46.7692 66.08C46.7692 65.288 47.3212 64.76 48.0892 64.76C48.8572 64.76 49.3852 65.264 49.5292 66.176C49.6972 67.184 50.3452 67.688 51.4972 67.688C52.9372 67.688 53.9452 66.896 54.1372 65.648C54.7372 61.952 47.2732 62.264 47.9932 57.728C48.3532 55.448 50.4412 54.008 53.3932 54.008C55.5772 54.008 56.9692 54.824 56.9692 56.12C56.9692 56.984 56.3452 57.416 55.6492 57.416C55.0492 57.416 54.3772 57.08 54.2092 56C54.0652 55.088 53.5852 54.728 52.7692 54.728C51.4732 54.728 50.3452 55.616 50.1532 56.792C49.6492 60.032 57.2572 59.648 56.5132 64.4ZM63.6478 50.528L63.0478 54.32H66.0958L65.9998 54.992H62.9518L61.4398 64.448C61.1998 65.984 61.5838 66.704 62.6638 66.704C63.4078 66.704 63.9838 66.344 64.4158 65.6L64.8958 65.744C64.2718 67.352 62.8558 68.408 61.3198 68.408C59.5438 68.408 58.6558 67.016 59.0398 64.736L60.5758 54.992H58.5358L58.6318 54.344C60.5038 54.2 61.9438 52.952 62.9998 50.528H63.6478ZM70.8943 49.04C71.7823 49.04 72.4063 49.784 72.2623 50.72C72.1183 51.632 71.2543 52.376 70.3663 52.376C69.4543 52.376 68.8063 51.632 68.9503 50.72C69.0943 49.784 69.9823 49.04 70.8943 49.04ZM71.4943 66.128L71.9263 66.464C71.5183 67.016 71.1583 67.4 70.7983 67.688C70.1743 68.168 69.4543 68.408 68.8063 68.408C67.9663 68.408 67.3903 68 67.2703 67.304C67.1983 66.896 67.2223 66.272 67.3663 65.384L68.5183 58.088C68.7823 56.456 68.4463 55.736 67.0543 56.168L66.9583 55.616L71.5423 54.008L69.7903 65.096C69.7663 65.312 69.6463 66.032 69.6943 66.488C69.7423 66.848 69.9103 67.064 70.1743 67.064C70.4623 67.064 70.8463 66.848 71.1823 66.512C71.1823 66.512 71.3503 66.344 71.4943 66.128ZM82.6097 58.712C82.9457 56.624 82.5617 55.616 81.4097 55.616C79.8017 55.616 78.0977 57.608 76.8017 60.944L75.6977 68H73.3217L74.8577 58.088C75.1217 56.456 74.7857 55.736 73.3937 56.168L73.2977 55.616L77.8817 54.008L77.0897 59.072C78.2897 56.072 80.5457 54.008 82.7537 54.008C84.7457 54.008 85.4897 55.664 84.9857 58.808L83.9777 65.096C83.9537 65.312 83.8577 66.056 83.9057 66.512C83.9537 66.896 84.0977 67.064 84.3617 67.064C84.6497 67.064 85.0337 66.848 85.2977 66.584C85.3697 66.512 85.5377 66.344 85.6817 66.128L86.1137 66.464C85.7057 67.016 85.3457 67.4 84.9857 67.688C84.3857 68.168 83.6897 68.408 83.0177 68.408C82.1777 68.408 81.6017 68 81.4577 67.28C81.3857 66.872 81.4097 66.248 81.5537 65.384L82.6097 58.712ZM97.0266 55.16L99.5946 54.008L97.8426 65.096C97.8186 65.312 97.7226 66.056 97.7706 66.512C97.8186 66.872 97.9626 67.064 98.2266 67.064C98.5146 67.064 98.9226 66.848 99.1626 66.584C99.2346 66.512 99.4026 66.344 99.5466 66.128L99.9786 66.464C99.5706 67.016 99.2106 67.4 98.8506 67.688C98.2506 68.144 97.5546 68.408 96.8826 68.408C96.0426 68.408 95.4666 68 95.3226 67.28C95.2506 66.872 95.2746 66.248 95.4186 65.384L95.5626 64.448C94.4346 66.368 92.7786 68.408 90.4266 68.408C84.1626 68.408 87.2106 54.008 94.3146 54.008C95.3706 54.008 96.1866 54.344 97.0266 55.16ZM95.8746 62.528L96.7866 56.72C96.3786 55.4 95.6826 54.8 94.6266 54.8C92.3706 54.8 90.3066 57.608 89.7546 61.448C89.3466 64.304 90.2346 66.56 91.7466 66.56C93.0666 66.56 94.7706 64.856 95.8746 62.528ZM106.466 50.528L105.866 54.32H108.914L108.818 54.992H105.77L104.258 64.448C104.018 65.984 104.402 66.704 105.482 66.704C106.226 66.704 106.802 66.344 107.234 65.6L107.714 65.744C107.09 67.352 105.674 68.408 104.138 68.408C102.362 68.408 101.474 67.016 101.858 64.736L103.394 54.992H101.354L101.45 54.344C103.322 54.2 104.762 52.952 105.818 50.528H106.466ZM113.713 49.04C114.601 49.04 115.225 49.784 115.081 50.72C114.937 51.632 114.073 52.376 113.185 52.376C112.273 52.376 111.625 51.632 111.769 50.72C111.913 49.784 112.801 49.04 113.713 49.04ZM114.313 66.128L114.745 66.464C114.337 67.016 113.977 67.4 113.617 67.688C112.993 68.168 112.273 68.408 111.625 68.408C110.785 68.408 110.209 68 110.089 67.304C110.017 66.896 110.041 66.272 110.185 65.384L111.337 58.088C111.601 56.456 111.265 55.736 109.873 56.168L109.777 55.616L114.361 54.008L112.609 65.096C112.585 65.312 112.465 66.032 112.513 66.488C112.561 66.848 112.729 67.064 112.993 67.064C113.281 67.064 113.665 66.848 114.001 66.512C114.001 66.512 114.169 66.344 114.313 66.128ZM120.121 68.408C116.137 68.408 114.889 64.808 115.489 61.064C116.089 57.296 118.441 54.008 122.401 54.008C126.361 54.008 127.705 57.296 127.105 61.064C126.505 64.808 124.105 68.408 120.121 68.408ZM120.241 67.712C122.857 67.712 124.105 63.104 124.441 61.088C124.753 59.024 124.945 54.704 122.305 54.704C119.665 54.704 118.465 59.024 118.153 61.088C117.817 63.104 117.625 67.712 120.241 67.712ZM137.791 58.712C138.127 56.624 137.743 55.616 136.591 55.616C134.983 55.616 133.279 57.608 131.983 60.944L130.879 68H128.503L130.039 58.088C130.303 56.456 129.967 55.736 128.575 56.168L128.479 55.616L133.063 54.008L132.271 59.072C133.471 56.072 135.727 54.008 137.935 54.008C139.927 54.008 140.671 55.664 140.167 58.808L139.159 65.096C139.135 65.312 139.039 66.056 139.087 66.512C139.135 66.896 139.279 67.064 139.543 67.064C139.831 67.064 140.215 66.848 140.479 66.584C140.551 66.512 140.719 66.344 140.863 66.128L141.295 66.464C140.887 67.016 140.527 67.4 140.167 67.688C139.567 68.168 138.871 68.408 138.199 68.408C137.359 68.408 136.783 68 136.639 67.28C136.567 66.872 136.591 66.248 136.735 65.384L137.791 58.712ZM151.677 64.4C151.293 66.824 149.037 68.408 145.965 68.408C143.565 68.408 141.933 67.448 141.933 66.08C141.933 65.288 142.485 64.76 143.253 64.76C144.021 64.76 144.549 65.264 144.693 66.176C144.861 67.184 145.509 67.688 146.661 67.688C148.101 67.688 149.109 66.896 149.301 65.648C149.901 61.952 142.437 62.264 143.157 57.728C143.517 55.448 145.605 54.008 148.557 54.008C150.741 54.008 152.133 54.824 152.133 56.12C152.133 56.984 151.509 57.416 150.813 57.416C150.213 57.416 149.541 57.08 149.373 56C149.229 55.088 148.749 54.728 147.933 54.728C146.637 54.728 145.509 55.616 145.317 56.792C144.813 60.032 152.421 59.648 151.677 64.4Z" fill="#FCFBF8"/>
</g>
<defs>
<clipPath id="clip0_613_18935">
<rect width="35" height="28" fill="white" transform="translate(179.016 24)"/>
</clipPath>
<clipPath id="clip1_613_18935">
<rect width="35" height="28" fill="white" transform="translate(179.016 24)"/>
</clipPath>
</defs>
</svg>
