<svg width="16" height="11" viewBox="0 0 16 11" fill="none" xmlns="http://www.w3.org/2000/svg">
<path opacity="0.4" d="M2.15234 10.0742L5.52482 10.0742C5.703 10.0742 5.79223 9.85879 5.66624 9.7328L2.81369 6.88023L2.15445 6.24069C1.51282 5.61823 1.15234 4.77399 1.15234 3.89369C1.15234 3.0134 1.51282 2.16916 2.15445 1.5467C2.79608 0.924237 3.6663 0.574541 4.5737 0.574541C5.4811 0.574541 6.35132 0.924237 6.99295 1.5467L7.65219 2.18624L8.31143 1.5467C8.62908 1.23839 9.00622 0.993825 9.42133 0.826963C9.83643 0.660102 10.2814 0.574219 10.7307 0.574219C11.18 0.574219 11.6249 0.660102 12.04 0.826963C12.4551 0.993825 12.8323 1.23839 13.1499 1.5467C13.4677 1.85486 13.7198 2.22074 13.8918 2.62345C14.0638 3.02615 14.1523 3.45779 14.1523 3.89369C14.1523 4.3296 14.0638 4.76123 13.8918 5.16394C13.7198 5.56664 13.4677 5.93253 13.1499 6.24069L12.4907 6.88023L9.63814 9.7328C9.51215 9.85879 9.60138 10.0742 9.77956 10.0742L15.1523 10.0742" stroke="white"/>
</svg>
