<svg width="235" height="97" viewBox="0 0 235 97" fill="none" xmlns="http://www.w3.org/2000/svg">
<path d="M0.367173 92.4937C3.68061 90.889 5.78889 87.5541 5.77409 83.8983C5.75928 80.2395 3.62139 76.925 0.296107 75.3466L0.272419 69.5404C3.58586 67.9357 5.69414 64.6008 5.67933 60.9449C5.66453 57.2862 3.52664 53.9688 0.201353 52.3903L0.177664 46.5754C3.4911 44.9707 5.59938 41.6358 5.58458 37.98C5.56977 34.3241 3.43188 31.0067 0.106599 29.4283L0.08291 23.6221C3.39635 22.0174 5.50463 18.6825 5.48983 15.0266C5.47502 11.3679 3.33713 8.05049 0.0118443 6.47203L0 3.957L161.319 3.2976C162.637 5.31663 164.778 6.60624 167.2 6.83382C167.46 6.85716 167.724 6.87175 167.99 6.86883C170.703 6.85716 173.184 5.50336 174.629 3.24217L233.933 3L233.945 5.51503C230.632 7.11975 228.524 10.4546 228.538 14.1134C228.553 17.7692 230.691 21.0866 234.016 22.6651L234.04 28.4713C230.727 30.076 228.618 33.4109 228.633 37.0667C228.648 40.7226 230.786 44.04 234.111 45.6184L234.135 51.4333C230.824 53.0381 228.713 56.37 228.728 60.0317C228.743 63.6905 230.881 67.0049 234.206 68.5834L234.23 74.3896C230.916 75.9943 228.808 79.3292 228.823 82.985C228.837 86.6409 230.975 89.9583 234.301 91.5367L234.312 94.043L175.008 94.2852C173.693 92.2661 171.55 90.9765 169.127 90.749C168.867 90.7256 168.603 90.711 168.337 90.7139C165.628 90.7256 163.143 92.0794 161.698 94.3406L0.376056 95L0.364212 92.4937H0.367173Z" fill="#FCFBF8"/>
<line x1="166.32" y1="14" x2="166.32" y2="84.8506" stroke="#A1661C" stroke-dasharray="5 5"/>
<path d="M33.6716 26.736L33.1196 26.832C32.8556 23.4 31.3436 21.648 28.9196 21.648C24.9356 21.648 22.2236 26.064 21.5036 30.624C20.7356 35.448 22.1996 40.44 26.7356 40.44C28.8716 40.44 30.5996 39.336 31.9916 37.056L32.4716 37.248C30.5996 40.656 28.0556 42.408 24.9836 42.408C19.7036 42.408 17.9276 37.032 18.7676 31.656C19.6316 26.232 23.1836 20.784 28.6316 20.784C30.8396 20.784 31.9676 21.744 32.8556 21.744C33.2876 21.744 33.5756 21.456 33.7676 20.784H34.2716L33.6716 26.736ZM37.029 37.704C36.693 39.792 37.077 40.8 38.229 40.8C39.693 40.8 41.229 39.168 42.477 36.36L43.149 32.088C43.365 30.768 43.173 30.048 42.381 30.048C42.189 30.048 41.949 30.096 41.685 30.168L41.589 29.616L46.173 28.008L44.421 39.096C44.397 39.312 44.277 40.056 44.325 40.488C44.373 40.872 44.541 41.064 44.805 41.064C45.093 41.064 45.477 40.848 45.813 40.512C45.813 40.512 45.981 40.344 46.125 40.128L46.557 40.464C45.789 41.496 44.829 42.408 43.437 42.408C42.621 42.408 42.021 42 41.901 41.304C41.829 40.896 41.853 40.272 41.997 39.384L42.189 38.136C40.941 40.704 38.877 42.408 36.885 42.408C34.917 42.408 34.149 40.752 34.653 37.608L35.661 31.32C35.685 31.104 35.781 30.36 35.733 29.904C35.685 29.544 35.541 29.352 35.277 29.352C34.773 29.352 34.221 29.88 33.957 30.288L33.525 29.952C34.293 28.92 35.253 28.008 36.621 28.008C37.461 28.008 38.037 28.416 38.181 29.136C38.253 29.544 38.229 30.168 38.085 31.032L37.029 37.704ZM53.688 20.784L50.784 39.096C50.76 39.312 50.664 40.056 50.712 40.512C50.76 40.896 50.904 41.064 51.168 41.064C51.456 41.064 51.864 40.848 52.128 40.584C52.2 40.512 52.344 40.344 52.488 40.128L52.92 40.464C52.512 41.016 52.152 41.4 51.792 41.688C51.192 42.168 50.496 42.408 49.824 42.408C48.984 42.408 48.408 42 48.264 41.28C48.192 40.872 48.216 40.248 48.36 39.384L50.664 24.864C50.928 23.232 50.592 22.512 49.2 22.944L49.08 22.392L53.688 20.784ZM58.4612 23.04C59.3492 23.04 59.9732 23.784 59.8292 24.72C59.6852 25.632 58.8212 26.376 57.9332 26.376C57.0212 26.376 56.3732 25.632 56.5172 24.72C56.6612 23.784 57.5492 23.04 58.4612 23.04ZM59.0612 40.128L59.4932 40.464C59.0852 41.016 58.7252 41.4 58.3652 41.688C57.7412 42.168 57.0212 42.408 56.3732 42.408C55.5332 42.408 54.9572 42 54.8372 41.304C54.7652 40.896 54.7892 40.272 54.9332 39.384L56.0852 32.088C56.3492 30.456 56.0132 29.736 54.6212 30.168L54.5252 29.616L59.1092 28.008L57.3572 39.096C57.3332 39.312 57.2132 40.032 57.2612 40.488C57.3092 40.848 57.4772 41.064 57.7412 41.064C58.0292 41.064 58.4132 40.848 58.7492 40.512C58.7492 40.512 58.9172 40.344 59.0612 40.128ZM70.1766 32.712C70.5126 30.624 70.1286 29.616 68.9766 29.616C67.3686 29.616 65.6646 31.608 64.3686 34.944L63.2646 42H60.8886L62.4246 32.088C62.6886 30.456 62.3526 29.736 60.9606 30.168L60.8646 29.616L65.4486 28.008L64.6566 33.072C65.8566 30.072 68.1126 28.008 70.3206 28.008C72.3126 28.008 73.0566 29.664 72.5526 32.808L71.5446 39.096C71.5206 39.312 71.4246 40.056 71.4726 40.512C71.5206 40.896 71.6646 41.064 71.9286 41.064C72.2166 41.064 72.6006 40.848 72.8646 40.584C72.9366 40.512 73.1046 40.344 73.2486 40.128L73.6806 40.464C73.2726 41.016 72.9126 41.4 72.5526 41.688C71.9526 42.168 71.2566 42.408 70.5846 42.408C69.7446 42.408 69.1686 42 69.0246 41.28C68.9526 40.872 68.9766 40.248 69.1206 39.384L70.1766 32.712ZM84.5934 29.16L87.1614 28.008L85.4094 39.096C85.3854 39.312 85.2894 40.056 85.3374 40.512C85.3854 40.872 85.5294 41.064 85.7934 41.064C86.0814 41.064 86.4894 40.848 86.7294 40.584C86.8014 40.512 86.9694 40.344 87.1134 40.128L87.5454 40.464C87.1374 41.016 86.7774 41.4 86.4174 41.688C85.8174 42.144 85.1214 42.408 84.4494 42.408C83.6094 42.408 83.0334 42 82.8894 41.28C82.8174 40.872 82.8414 40.248 82.9854 39.384L83.1294 38.448C82.0014 40.368 80.3454 42.408 77.9934 42.408C71.7294 42.408 74.7774 28.008 81.8814 28.008C82.9374 28.008 83.7534 28.344 84.5934 29.16ZM83.4414 36.528L84.3534 30.72C83.9454 29.4 83.2494 28.8 82.1934 28.8C79.9374 28.8 77.8734 31.608 77.3214 35.448C76.9134 38.304 77.8014 40.56 79.3134 40.56C80.6334 40.56 82.3374 38.856 83.4414 36.528ZM88.9183 42L90.4783 32.088C90.6943 30.696 90.4543 30.048 89.7103 30.048C89.4943 30.048 89.2783 30.096 89.0143 30.168L88.9183 29.616L93.5023 28.008L92.7583 32.76C93.9103 29.64 95.6383 28.008 97.6303 28.008C100.294 28.008 99.9343 31.176 97.9423 31.176C96.8623 31.176 96.8623 30.24 96.4303 29.856C96.3103 29.76 96.1903 29.712 96.0223 29.712C95.8783 29.712 95.6863 29.76 95.4943 29.856C94.4863 30.384 93.5743 31.872 92.3983 34.992L91.2943 42H88.9183ZM100.252 29.832L100.156 29.28L103.948 28.008C105.268 30.792 106.228 34.824 107.212 39.072C108.268 37.248 109.9 34.752 110.572 33.24C111.196 31.896 111.076 31.272 110.212 30.744C109.444 30.264 109.108 29.592 109.396 28.848C109.684 28.128 110.38 27.816 111.1 28.104C111.82 28.368 112.276 29.112 112.3 30.024C112.372 32.784 108.508 37.8 105.916 42.552C105.148 43.992 104.548 45.288 103.372 47.544C102.604 49.152 100.444 47.856 101.452 46.608L105.412 42.096C104.284 37.512 103.396 33.216 102.364 30.816C101.908 29.736 101.092 29.568 100.252 29.832ZM20.7116 49.784H26.6876C32.7836 49.784 35.8316 53.936 34.7996 60.368C33.7916 66.776 29.4236 71 23.4236 71H17.3516L17.4236 70.472C19.2956 70.16 19.3196 69.032 19.5356 67.736L21.8396 53.048C22.0556 51.752 22.3676 50.624 20.6396 50.312L20.7116 49.784ZM26.4956 50.504C25.9196 50.504 25.2956 50.576 24.6956 50.696L21.6476 69.896C22.2716 70.16 22.7996 70.28 23.6156 70.28C28.0556 70.28 31.0796 66.728 32.0156 60.92C32.9756 54.776 30.8636 50.504 26.4956 50.504ZM45.6489 66.32L46.1289 66.416C45.0249 69.512 42.7689 71.408 40.1049 71.408C36.8169 71.408 34.9449 68.552 35.6169 64.352C36.2889 60.08 39.1689 57.008 42.6249 57.008C44.8089 57.008 46.3689 58.208 46.3689 59.888C46.3689 60.512 46.1529 61.16 45.7209 61.784C44.5689 63.512 42.2649 64.472 37.7289 65.024C37.9449 67.496 39.3609 69.176 41.4969 69.176C43.1769 69.176 44.6649 68.168 45.6489 66.32ZM43.5129 61.496C44.1609 60.392 44.1849 59.336 43.7769 58.616C43.4409 58.016 42.8409 57.704 42.1209 57.704C41.7849 57.704 41.4249 57.776 41.0649 57.92C38.6409 58.88 37.6809 62.072 37.6809 64.496C40.5609 64.112 42.5769 63.056 43.5129 61.496ZM56.5132 67.4C56.1292 69.824 53.8732 71.408 50.8012 71.408C48.4012 71.408 46.7692 70.448 46.7692 69.08C46.7692 68.288 47.3212 67.76 48.0892 67.76C48.8572 67.76 49.3852 68.264 49.5292 69.176C49.6972 70.184 50.3452 70.688 51.4972 70.688C52.9372 70.688 53.9452 69.896 54.1372 68.648C54.7372 64.952 47.2732 65.264 47.9932 60.728C48.3532 58.448 50.4412 57.008 53.3932 57.008C55.5772 57.008 56.9692 57.824 56.9692 59.12C56.9692 59.984 56.3452 60.416 55.6492 60.416C55.0492 60.416 54.3772 60.08 54.2092 59C54.0652 58.088 53.5852 57.728 52.7692 57.728C51.4732 57.728 50.3452 58.616 50.1532 59.792C49.6492 63.032 57.2572 62.648 56.5132 67.4ZM63.6478 53.528L63.0478 57.32H66.0958L65.9998 57.992H62.9518L61.4398 67.448C61.1998 68.984 61.5838 69.704 62.6638 69.704C63.4078 69.704 63.9838 69.344 64.4158 68.6L64.8958 68.744C64.2718 70.352 62.8558 71.408 61.3198 71.408C59.5438 71.408 58.6558 70.016 59.0398 67.736L60.5758 57.992H58.5358L58.6318 57.344C60.5038 57.2 61.9438 55.952 62.9998 53.528H63.6478ZM70.8943 52.04C71.7823 52.04 72.4063 52.784 72.2623 53.72C72.1183 54.632 71.2543 55.376 70.3663 55.376C69.4543 55.376 68.8063 54.632 68.9503 53.72C69.0943 52.784 69.9823 52.04 70.8943 52.04ZM71.4943 69.128L71.9263 69.464C71.5183 70.016 71.1583 70.4 70.7983 70.688C70.1743 71.168 69.4543 71.408 68.8063 71.408C67.9663 71.408 67.3903 71 67.2703 70.304C67.1983 69.896 67.2223 69.272 67.3663 68.384L68.5183 61.088C68.7823 59.456 68.4463 58.736 67.0543 59.168L66.9583 58.616L71.5423 57.008L69.7903 68.096C69.7663 68.312 69.6463 69.032 69.6943 69.488C69.7423 69.848 69.9103 70.064 70.1743 70.064C70.4623 70.064 70.8463 69.848 71.1823 69.512C71.1823 69.512 71.3503 69.344 71.4943 69.128ZM82.6097 61.712C82.9457 59.624 82.5617 58.616 81.4097 58.616C79.8017 58.616 78.0977 60.608 76.8017 63.944L75.6977 71H73.3217L74.8577 61.088C75.1217 59.456 74.7857 58.736 73.3937 59.168L73.2977 58.616L77.8817 57.008L77.0897 62.072C78.2897 59.072 80.5457 57.008 82.7537 57.008C84.7457 57.008 85.4897 58.664 84.9857 61.808L83.9777 68.096C83.9537 68.312 83.8577 69.056 83.9057 69.512C83.9537 69.896 84.0977 70.064 84.3617 70.064C84.6497 70.064 85.0337 69.848 85.2977 69.584C85.3697 69.512 85.5377 69.344 85.6817 69.128L86.1137 69.464C85.7057 70.016 85.3457 70.4 84.9857 70.688C84.3857 71.168 83.6897 71.408 83.0177 71.408C82.1777 71.408 81.6017 71 81.4577 70.28C81.3857 69.872 81.4097 69.248 81.5537 68.384L82.6097 61.712ZM97.0266 58.16L99.5946 57.008L97.8426 68.096C97.8186 68.312 97.7226 69.056 97.7706 69.512C97.8186 69.872 97.9626 70.064 98.2266 70.064C98.5146 70.064 98.9226 69.848 99.1626 69.584C99.2346 69.512 99.4026 69.344 99.5466 69.128L99.9786 69.464C99.5706 70.016 99.2106 70.4 98.8506 70.688C98.2506 71.144 97.5546 71.408 96.8826 71.408C96.0426 71.408 95.4666 71 95.3226 70.28C95.2506 69.872 95.2746 69.248 95.4186 68.384L95.5626 67.448C94.4346 69.368 92.7786 71.408 90.4266 71.408C84.1626 71.408 87.2106 57.008 94.3146 57.008C95.3706 57.008 96.1866 57.344 97.0266 58.16ZM95.8746 65.528L96.7866 59.72C96.3786 58.4 95.6826 57.8 94.6266 57.8C92.3706 57.8 90.3066 60.608 89.7546 64.448C89.3466 67.304 90.2346 69.56 91.7466 69.56C93.0666 69.56 94.7706 67.856 95.8746 65.528ZM106.466 53.528L105.866 57.32H108.914L108.818 57.992H105.77L104.258 67.448C104.018 68.984 104.402 69.704 105.482 69.704C106.226 69.704 106.802 69.344 107.234 68.6L107.714 68.744C107.09 70.352 105.674 71.408 104.138 71.408C102.362 71.408 101.474 70.016 101.858 67.736L103.394 57.992H101.354L101.45 57.344C103.322 57.2 104.762 55.952 105.818 53.528H106.466ZM113.713 52.04C114.601 52.04 115.225 52.784 115.081 53.72C114.937 54.632 114.073 55.376 113.185 55.376C112.273 55.376 111.625 54.632 111.769 53.72C111.913 52.784 112.801 52.04 113.713 52.04ZM114.313 69.128L114.745 69.464C114.337 70.016 113.977 70.4 113.617 70.688C112.993 71.168 112.273 71.408 111.625 71.408C110.785 71.408 110.209 71 110.089 70.304C110.017 69.896 110.041 69.272 110.185 68.384L111.337 61.088C111.601 59.456 111.265 58.736 109.873 59.168L109.777 58.616L114.361 57.008L112.609 68.096C112.585 68.312 112.465 69.032 112.513 69.488C112.561 69.848 112.729 70.064 112.993 70.064C113.281 70.064 113.665 69.848 114.001 69.512C114.001 69.512 114.169 69.344 114.313 69.128ZM120.121 71.408C116.137 71.408 114.889 67.808 115.489 64.064C116.089 60.296 118.441 57.008 122.401 57.008C126.361 57.008 127.705 60.296 127.105 64.064C126.505 67.808 124.105 71.408 120.121 71.408ZM120.241 70.712C122.857 70.712 124.105 66.104 124.441 64.088C124.753 62.024 124.945 57.704 122.305 57.704C119.665 57.704 118.465 62.024 118.153 64.088C117.817 66.104 117.625 70.712 120.241 70.712ZM137.791 61.712C138.127 59.624 137.743 58.616 136.591 58.616C134.983 58.616 133.279 60.608 131.983 63.944L130.879 71H128.503L130.039 61.088C130.303 59.456 129.967 58.736 128.575 59.168L128.479 58.616L133.063 57.008L132.271 62.072C133.471 59.072 135.727 57.008 137.935 57.008C139.927 57.008 140.671 58.664 140.167 61.808L139.159 68.096C139.135 68.312 139.039 69.056 139.087 69.512C139.135 69.896 139.279 70.064 139.543 70.064C139.831 70.064 140.215 69.848 140.479 69.584C140.551 69.512 140.719 69.344 140.863 69.128L141.295 69.464C140.887 70.016 140.527 70.4 140.167 70.688C139.567 71.168 138.871 71.408 138.199 71.408C137.359 71.408 136.783 71 136.639 70.28C136.567 69.872 136.591 69.248 136.735 68.384L137.791 61.712ZM151.677 67.4C151.293 69.824 149.037 71.408 145.965 71.408C143.565 71.408 141.933 70.448 141.933 69.08C141.933 68.288 142.485 67.76 143.253 67.76C144.021 67.76 144.549 68.264 144.693 69.176C144.861 70.184 145.509 70.688 146.661 70.688C148.101 70.688 149.109 69.896 149.301 68.648C149.901 64.952 142.437 65.264 143.157 60.728C143.517 58.448 145.605 57.008 148.557 57.008C150.741 57.008 152.133 57.824 152.133 59.12C152.133 59.984 151.509 60.416 150.813 60.416C150.213 60.416 149.541 60.08 149.373 59C149.229 58.088 148.749 57.728 147.933 57.728C146.637 57.728 145.509 58.616 145.317 59.792C144.813 63.032 152.421 62.648 151.677 67.4Z" fill="#A1661C"/>
<g clip-path="url(#clip0_613_19014)">
<path d="M210.067 54.4443H182.933L179.545 42.2109H213.465L210.067 54.4443Z" stroke="#A1661C" stroke-linejoin="round"/>
<path d="M194.716 42.5665C194.652 41.922 194.589 41.2776 194.674 40.6331C194.758 39.9887 194.991 39.3554 195.446 38.9109C195.732 38.6443 196.082 38.4665 196.442 38.322C196.198 36.8331 196.674 35.1998 197.754 34.1998C198.834 33.1998 200.539 32.9443 201.767 33.7443C202.074 32.822 202.952 32.2443 203.842 31.9443C205.271 31.4554 206.891 31.5443 208.203 32.2887C209.516 33.0331 210.49 34.4776 210.596 36.0554C211.814 36.5109 212.925 37.4443 213.338 38.7331C213.751 40.022 213.275 41.6331 212.11 42.2331" stroke="#A1661C" stroke-linejoin="round"/>
<path d="M201.322 37.378C201.269 37.0669 201.47 36.7891 201.693 36.578C201.862 36.4113 202.042 36.2669 202.243 36.1558C202.836 35.8336 203.577 35.8447 204.159 36.178" stroke="#A1661C" stroke-linejoin="round"/>
<path d="M205.663 39.2557C206.51 38.8002 207.569 38.8002 208.426 39.2557C208.765 39.4335 209.093 39.7113 209.188 40.1002" stroke="#A1661C" stroke-linejoin="round"/>
<path d="M208.415 46.9556L206.647 54.4445" stroke="#A1661C" stroke-linejoin="round"/>
<path d="M187.358 37.2221C187.708 37.6999 188.227 38.0332 188.788 38.1555C189.349 38.2777 189.952 38.1555 190.45 37.8666C190.863 36.1221 191.244 34.3332 191.646 32.5888C191.699 32.3666 191.752 32.1332 191.868 31.9332C192.059 31.5999 192.398 31.3777 192.715 31.1777C193.001 30.9999 193.276 30.811 193.478 30.5332C193.859 29.9666 193.721 29.0999 193.192 28.6888C192.662 28.2777 191.826 28.411 191.434 28.9666C191.265 28.5443 191.074 28.1221 190.736 27.8332C190.397 27.5443 189.889 27.4443 189.529 27.6999C189.19 27.9555 189.095 28.4443 189.095 28.8777C189.095 29.2999 189.169 29.7221 189.306 30.1221C189.38 30.3555 189.476 30.5777 189.486 30.8221C189.486 31.011 189.455 31.1888 189.412 31.3777C188.925 33.3888 188.004 35.2666 187.358 37.2221Z" stroke="#A1661C" stroke-linejoin="round"/>
<path d="M188.523 33.5222C187.369 33.4222 186.162 33.3444 185.093 33.8111C184.574 34.0333 184.119 34.3889 183.674 34.7555C182.658 35.6111 181.726 36.6111 181.133 37.8333C180.541 39.0555 180.308 40.5 180.689 41.8" stroke="#A1661C" stroke-linejoin="round"/>
<path d="M191.582 33.8779C191.889 33.9113 192.143 34.1224 192.366 34.3446C193.7 35.6446 194.716 37.3002 195.277 39.1224" stroke="#A1661C" stroke-linejoin="round"/>
</g>
<line x1="190.016" y1="66.3887" x2="203.016" y2="66.3887" stroke="#A1661C"/>
<path d="M204.354 66.3539C203.782 66.3539 203.216 66.2413 202.687 66.0225C202.159 65.8036 201.679 65.4829 201.275 65.0787C200.871 64.6744 200.55 64.1944 200.331 63.6662C200.112 63.1379 200 62.5718 200 62" stroke="#A1661C"/>
<path d="M204.354 66.3537C203.782 66.3537 203.216 66.4663 202.687 66.6851C202.159 66.9039 201.679 67.2246 201.275 67.6289C200.871 68.0332 200.55 68.5131 200.331 69.0414C200.112 69.5696 200 70.1358 200 70.7075" stroke="#A1661C"/>
<defs>
<clipPath id="clip0_613_19014">
<rect width="35" height="28" fill="white" transform="translate(179.016 27)"/>
</clipPath>
</defs>
</svg>
