<svg width="23" height="17" viewBox="0 0 23 17" fill="none" xmlns="http://www.w3.org/2000/svg">
<path d="M11.9286 2.08062C11.9286 1.24212 10.9586 0.775945 10.3039 1.29976L6.13106 4.63801C5.95374 4.77986 5.73343 4.85714 5.50636 4.85714H2C1.44771 4.85714 1 5.30486 1 5.85714V11.1429C1 11.6951 1.44772 12.1429 2 12.1429H5.50636C5.73343 12.1429 5.95374 12.2201 6.13106 12.362L10.3039 15.7002C10.9586 16.2241 11.9286 15.7579 11.9286 14.9194V2.08062Z" stroke="white" stroke-linecap="round" stroke-linejoin="round"/>
<path d="M19.53 2C21.4047 3.87528 22.4579 6.41836 22.4579 9.07C22.4579 11.7216 21.4047 14.2647 19.53 16.14M16 5.53C16.9374 6.46764 17.4639 7.73918 17.4639 9.065C17.4639 10.3908 16.9374 11.6624 16 12.6" stroke="white" stroke-linecap="round" stroke-linejoin="round"/>
</svg>
