<svg width="15" height="11" viewBox="0 0 15 11" fill="none" xmlns="http://www.w3.org/2000/svg">
<path d="M6.00765 10.0742L2.81366 6.88023L2.15443 6.24069C1.51281 5.61823 1.15234 4.77399 1.15234 3.89369C1.15234 3.0134 1.51281 2.16916 2.15443 1.5467C2.79606 0.924237 3.66629 0.574541 4.57369 0.574541C5.48109 0.574541 6.35132 0.924237 6.99295 1.5467L7.65218 2.18624L8.31141 1.5467C8.62906 1.23839 9.00621 0.993825 9.42131 0.826964C9.83641 0.660103 10.2813 0.574219 10.7307 0.574219C11.18 0.574219 11.6249 0.660103 12.04 0.826964C12.4551 0.993825 12.8323 1.23839 13.1499 1.5467C13.4677 1.85486 13.7198 2.22074 13.8918 2.62345C14.0638 3.02615 14.1523 3.45779 14.1523 3.89369C14.1523 4.3296 14.0638 4.76123 13.8918 5.16394C13.7198 5.56664 13.4677 5.93253 13.1499 6.24069L12.4907 6.88023L9.2967 10.0742" stroke="#11174A" stroke-linecap="round" stroke-linejoin="round"/>
</svg>
